M48
;DRILL file {KiCad 4.0.5} date Monday, January 30, 2017 'AMt' 11:03:43 AM
;FORMAT={-:-/ absolute / inch / decimal}
FMAT,2
INCH,TZ
T1C0.016
T2C0.024
T3C0.031
T4C0.039
T5C0.039
T6C0.040
T7C0.043
T8C0.047
T9C0.047
T10C0.126
%
G90
G05
M72
T1
X6.1024Y-5.2953
X6.437Y-5.1181
X6.7126Y-5.2559
X6.9094Y-5.3937
T2
X5.9449Y-5.0394
X6.0236Y-4.4685
X6.1811Y-3.8976
X6.2008Y-4.9409
X6.2795Y-4.0748
X6.2992Y-4.1929
X6.3583Y-5.2756
X6.365Y-3.8713
X6.4173Y-3.9567
X6.4567Y-5.2559
X6.4764Y-5.0394
X6.5354Y-5.315
X6.7913Y-3.877
X6.8701Y-4.0354
X7.4213Y-3.8583
X7.4213Y-4.0551
X7.5394Y-3.8583
X7.6575Y-3.8583
T3
X6.1614Y-5.5118
X6.3583Y-5.5118
T4
X7.2047Y-5.315
X7.5591Y-5.315
X7.7362Y-5.0787
X8.0906Y-5.0787
T5
X7.7559Y-5.315
X7.8559Y-5.315
X8.0512Y-5.315
X8.1512Y-5.315
T6
X6.3535Y-4.0354
X6.4535Y-4.0354
X6.5535Y-4.0354
X6.6079Y-5.315
X6.6535Y-4.0354
X6.6685Y-5.0787
X6.7079Y-5.315
X6.7685Y-5.0787
X6.8079Y-5.315
X6.8685Y-5.0787
X6.9079Y-5.315
X6.9685Y-5.0787
X6.9882Y-4.0354
X7.0079Y-5.315
X7.0882Y-4.0354
X7.1803Y-5.0787
X7.1882Y-4.0354
X7.2803Y-5.0787
X7.2882Y-4.0354
X7.3803Y-5.0787
X7.4803Y-5.0787
X7.6331Y-4.0354
X7.7331Y-4.0354
X7.8331Y-4.0354
X7.9331Y-4.0354
T7
X6.0163Y-4.2722
X6.0163Y-4.8722
X6.1024Y-5.0543
X6.1024Y-5.3543
X6.1163Y-4.2722
X6.1163Y-4.8722
X6.2024Y-5.0543
X6.2024Y-5.3543
X6.2163Y-4.2722
X6.2163Y-4.8722
X6.3024Y-5.0543
X6.3024Y-5.3543
X6.3163Y-4.2722
X6.3163Y-4.8722
X6.4024Y-5.0543
X6.4024Y-5.3543
X6.4163Y-4.2722
X6.4163Y-4.8722
X6.5163Y-4.2722
X6.5163Y-4.8722
X6.6163Y-4.2722
X6.6163Y-4.8722
X6.7163Y-4.2722
X6.7163Y-4.8722
X6.8163Y-4.2722
X6.8163Y-4.8722
X6.9163Y-4.2722
X6.9163Y-4.8722
X7.0163Y-4.2722
X7.0163Y-4.8722
X7.1163Y-4.2722
X7.1163Y-4.8722
X7.2163Y-4.2722
X7.2163Y-4.8722
X7.3163Y-4.2722
X7.3163Y-4.8722
X7.4163Y-4.2722
X7.4163Y-4.8722
X7.5163Y-4.2722
X7.5163Y-4.8722
X7.6163Y-4.2722
X7.6163Y-4.8722
X7.7163Y-4.2722
X7.7163Y-4.8722
X7.8163Y-4.2722
X7.8163Y-4.8722
X7.9163Y-4.2722
X7.9163Y-4.8722
X8.0163Y-4.2722
X8.0163Y-4.8722
X8.1163Y-4.2722
X8.1163Y-4.8722
X8.2163Y-4.2722
X8.2163Y-4.8722
X8.3163Y-4.2722
X8.3163Y-4.8722
T8
X6.365Y-3.5614
X6.365Y-3.7614
X6.41Y-3.6614
X6.4551Y-3.5614
X6.4551Y-3.7614
X6.5002Y-3.6614
X6.5453Y-3.5614
X6.5453Y-3.7614
X6.5904Y-3.6614
X6.6354Y-3.5614
X6.6354Y-3.7614
X6.6805Y-3.6614
X6.7256Y-3.5614
X6.7256Y-3.7614
X7.5854Y-3.5614
X7.5854Y-3.7614
X7.6305Y-3.6614
X7.6756Y-3.5614
X7.6756Y-3.7614
X7.7207Y-3.6614
X7.7657Y-3.5614
X7.7657Y-3.7614
X7.8108Y-3.6614
X7.8559Y-3.5614
X7.8559Y-3.7614
X7.901Y-3.6614
X7.9461Y-3.5614
X7.9461Y-3.7614
T9
X6.3199Y-3.6614
X7.5404Y-3.6614
T10
X6.0433Y-3.6614
X7.0275Y-3.6614
X7.2638Y-3.6614
X8.248Y-3.6614
T0
M30
