G04 #@! TF.FileFunction,Copper,L1,Top,Signal*
%FSLAX46Y46*%
G04 Gerber Fmt 4.6, Leading zero omitted, Abs format (unit mm)*
G04 Created by KiCad (PCBNEW 4.0.5) date Monday, January 30, 2017 'PMt' 03:56:46 PM*
%MOMM*%
%LPD*%
G01*
G04 APERTURE LIST*
%ADD10C,0.100000*%
%ADD11C,1.600000*%
%ADD12R,1.600000X1.600000*%
%ADD13R,1.727200X2.032000*%
%ADD14O,1.727200X2.032000*%
%ADD15R,1.900000X2.000000*%
%ADD16C,1.900000*%
%ADD17C,4.064000*%
%ADD18C,1.600200*%
%ADD19O,1.600000X1.600000*%
%ADD20C,2.000000*%
%ADD21C,1.000000*%
%ADD22C,0.800000*%
%ADD23C,0.600000*%
%ADD24C,1.000000*%
%ADD25C,0.650000*%
%ADD26C,0.254000*%
G04 APERTURE END LIST*
D10*
D11*
X193455001Y-123755000D03*
X195995001Y-123755000D03*
X198535001Y-123755000D03*
X201075001Y-123755000D03*
X190915001Y-123755000D03*
X188375001Y-123755000D03*
X185835001Y-123755000D03*
X203615001Y-123755000D03*
X206155001Y-123755000D03*
X208695001Y-123755000D03*
X211235001Y-123755000D03*
X211235001Y-108515000D03*
X208695001Y-108515000D03*
X206155001Y-108515000D03*
X203615001Y-108515000D03*
X201075001Y-108515000D03*
X198535001Y-108515000D03*
X195995001Y-108515000D03*
X193455001Y-108515000D03*
X183295001Y-123755000D03*
X180755001Y-123755000D03*
X178215001Y-123755000D03*
X175675001Y-123755000D03*
X173135001Y-123755000D03*
X170595001Y-123755000D03*
X168055001Y-123755000D03*
X165515001Y-123755000D03*
X162975001Y-123755000D03*
X160435001Y-123755000D03*
X157895001Y-123755000D03*
X155355001Y-123755000D03*
D12*
X152815001Y-123755000D03*
D11*
X190915001Y-108515000D03*
X188375001Y-108515000D03*
X185835001Y-108515000D03*
X183295001Y-108515000D03*
X180755001Y-108515000D03*
X178215001Y-108515000D03*
X175675001Y-108515000D03*
X173135001Y-108515000D03*
X170595001Y-108515000D03*
X168055001Y-108515000D03*
X165515001Y-108515000D03*
X162975001Y-108515000D03*
X160435001Y-108515000D03*
X157895001Y-108515000D03*
X155355001Y-108515000D03*
X152815001Y-108515000D03*
D13*
X169000000Y-102500000D03*
D14*
X166460000Y-102500000D03*
X163920000Y-102500000D03*
X161380000Y-102500000D03*
D15*
X197000000Y-135000000D03*
D16*
X199540000Y-135000000D03*
D15*
X204500000Y-135000000D03*
D16*
X207040000Y-135000000D03*
D17*
X153500660Y-93000000D03*
X178499340Y-93000000D03*
D18*
X170830000Y-90460000D03*
X169685000Y-93000000D03*
X168540000Y-90460000D03*
X166250000Y-90460000D03*
X163960000Y-90460000D03*
X161670000Y-90460000D03*
X167395000Y-93000000D03*
X165105000Y-93000000D03*
X162815000Y-93000000D03*
X160525000Y-93000000D03*
X170830000Y-95540000D03*
X168540000Y-95540000D03*
X166250000Y-95540000D03*
X163960000Y-95540000D03*
X161670000Y-95540000D03*
D17*
X184500660Y-93000000D03*
X209499340Y-93000000D03*
D18*
X201830000Y-90460000D03*
X200685000Y-93000000D03*
X199540000Y-90460000D03*
X197250000Y-90460000D03*
X194960000Y-90460000D03*
X192670000Y-90460000D03*
X198395000Y-93000000D03*
X196105000Y-93000000D03*
X193815000Y-93000000D03*
X191525000Y-93000000D03*
X201830000Y-95540000D03*
X199540000Y-95540000D03*
X197250000Y-95540000D03*
X194960000Y-95540000D03*
X192670000Y-95540000D03*
D13*
X177000000Y-129000000D03*
D14*
X174460000Y-129000000D03*
X171920000Y-129000000D03*
X169380000Y-129000000D03*
D13*
X190000000Y-129000000D03*
D14*
X187460000Y-129000000D03*
X184920000Y-129000000D03*
X182380000Y-129000000D03*
D13*
X201500000Y-102500000D03*
D14*
X198960000Y-102500000D03*
X196420000Y-102500000D03*
X193880000Y-102500000D03*
D13*
X178000000Y-135000000D03*
D14*
X175460000Y-135000000D03*
X172920000Y-135000000D03*
X170380000Y-135000000D03*
X167840000Y-135000000D03*
D12*
X155000000Y-136000000D03*
D19*
X162620000Y-128380000D03*
X157540000Y-136000000D03*
X160080000Y-128380000D03*
X160080000Y-136000000D03*
X157540000Y-128380000D03*
X162620000Y-136000000D03*
X155000000Y-128380000D03*
D20*
X196500000Y-129000000D03*
X205500000Y-129000000D03*
X183000000Y-135000000D03*
X192000000Y-135000000D03*
D13*
X177500000Y-102500000D03*
D14*
X180040000Y-102500000D03*
X182580000Y-102500000D03*
X185120000Y-102500000D03*
D11*
X161500000Y-140000000D03*
X156500000Y-140000000D03*
D21*
X174500000Y-102500000D03*
X172500000Y-98474998D03*
X153000000Y-113500000D03*
X151000000Y-128000000D03*
X161500000Y-134000000D03*
X164000000Y-133500000D03*
X159500000Y-103500000D03*
X157000000Y-99000000D03*
X188500000Y-103000000D03*
X188500000Y-98000000D03*
X194500000Y-98000000D03*
X191500000Y-98000000D03*
X161670000Y-98330000D03*
D22*
X163000000Y-100500000D03*
D23*
X175500000Y-137000000D03*
D21*
X160000000Y-106500000D03*
D23*
X170500000Y-133500000D03*
D21*
X157500000Y-125500000D03*
X164500000Y-128000000D03*
X166000000Y-135000000D03*
D23*
X163500000Y-130000000D03*
X155000000Y-134500000D03*
D24*
X173000000Y-101000000D02*
X174500000Y-102500000D01*
X173000000Y-98974998D02*
X173000000Y-101000000D01*
X172500000Y-98474998D02*
X173000000Y-98974998D01*
X151000000Y-115500000D02*
X153000000Y-113500000D01*
X151000000Y-128000000D02*
X151000000Y-115500000D01*
X163500000Y-134000000D02*
X161500000Y-134000000D01*
X164000000Y-133500000D02*
X163500000Y-134000000D01*
X159500000Y-101500000D02*
X157000000Y-99000000D01*
X159500000Y-103500000D02*
X159500000Y-101500000D01*
X188500000Y-103000000D02*
X188500000Y-98000000D01*
X166250000Y-90460000D02*
X166250000Y-89750000D01*
X166250000Y-89750000D02*
X167500000Y-88500000D01*
X194960000Y-89460000D02*
X194960000Y-90460000D01*
X194000000Y-88500000D02*
X194960000Y-89460000D01*
X167500000Y-88500000D02*
X194000000Y-88500000D01*
D25*
X191500000Y-98000000D02*
X194500000Y-98000000D01*
X161670000Y-98330000D02*
X162500000Y-99160000D01*
X162500000Y-99160000D02*
X162500000Y-100000000D01*
X162500000Y-100000000D02*
X163000000Y-100500000D01*
D24*
X160000000Y-106500000D02*
X212000000Y-106500000D01*
X212000000Y-106500000D02*
X213000000Y-107500000D01*
X213000000Y-107500000D02*
X213000000Y-120500000D01*
X213000000Y-120500000D02*
X215000000Y-122500000D01*
X215000000Y-122500000D02*
X215000000Y-134500000D01*
X215000000Y-134500000D02*
X211000000Y-138500000D01*
X211000000Y-138500000D02*
X177000000Y-138500000D01*
X177000000Y-138500000D02*
X175500000Y-137000000D01*
D25*
X167500000Y-130500000D02*
X170500000Y-133500000D01*
X166500000Y-130500000D02*
X167500000Y-130500000D01*
X158500000Y-126500000D02*
X157500000Y-125500000D01*
X166500000Y-128500000D02*
X164500000Y-126500000D01*
X166500000Y-130500000D02*
X166500000Y-128500000D01*
X158500000Y-126500000D02*
X164500000Y-126500000D01*
X165000000Y-130500000D02*
X165500000Y-131000000D01*
X164500000Y-128000000D02*
X165000000Y-128500000D01*
X165000000Y-128500000D02*
X165000000Y-130500000D01*
X165500000Y-134500000D02*
X166000000Y-135000000D01*
X165500000Y-131000000D02*
X165500000Y-134500000D01*
X155000000Y-131500000D02*
X155000000Y-134500000D01*
X155000000Y-131500000D02*
X156500000Y-130000000D01*
X156500000Y-130000000D02*
X163500000Y-130000000D01*
D26*
G36*
X214798000Y-119997074D02*
X214627000Y-119826074D01*
X214627000Y-107500005D01*
X214627001Y-107500000D01*
X214503152Y-106877374D01*
X214466293Y-106822211D01*
X214150463Y-106349537D01*
X214150460Y-106349535D01*
X213150463Y-105349537D01*
X212622626Y-104996848D01*
X212000000Y-104873000D01*
X160427538Y-104873000D01*
X160878499Y-104422825D01*
X161010241Y-104105555D01*
X161020974Y-104107358D01*
X161253000Y-103986217D01*
X161253000Y-102627000D01*
X161233000Y-102627000D01*
X161233000Y-102373000D01*
X161253000Y-102373000D01*
X161253000Y-102353000D01*
X161507000Y-102353000D01*
X161507000Y-102373000D01*
X161527000Y-102373000D01*
X161527000Y-102627000D01*
X161507000Y-102627000D01*
X161507000Y-103986217D01*
X161739026Y-104107358D01*
X161754791Y-104104709D01*
X162282036Y-103850732D01*
X162317816Y-103810686D01*
X162512433Y-104101951D01*
X163158230Y-104533459D01*
X163920000Y-104684984D01*
X164681770Y-104533459D01*
X165190000Y-104193870D01*
X165698230Y-104533459D01*
X166460000Y-104684984D01*
X167221770Y-104533459D01*
X167427764Y-104395818D01*
X167689344Y-104574548D01*
X168136400Y-104665079D01*
X169863600Y-104665079D01*
X170281241Y-104586494D01*
X170664819Y-104339669D01*
X170922148Y-103963056D01*
X171012679Y-103516000D01*
X171012679Y-101484000D01*
X170934094Y-101066359D01*
X170687269Y-100682781D01*
X170310656Y-100425452D01*
X169863600Y-100334921D01*
X168136400Y-100334921D01*
X167718759Y-100413506D01*
X167425152Y-100602436D01*
X167221770Y-100466541D01*
X166460000Y-100315016D01*
X165698230Y-100466541D01*
X165190000Y-100806130D01*
X164681770Y-100466541D01*
X164527057Y-100435767D01*
X164527265Y-100197593D01*
X164295283Y-99636154D01*
X163952000Y-99292271D01*
X163952000Y-99160000D01*
X163856082Y-98677789D01*
X163841473Y-98604343D01*
X163526719Y-98133281D01*
X163224091Y-97830653D01*
X163050108Y-97409582D01*
X162787944Y-97146960D01*
X162814620Y-97120331D01*
X162866960Y-97172763D01*
X163574994Y-97466765D01*
X164341642Y-97467434D01*
X165050188Y-97174668D01*
X165104620Y-97120331D01*
X165156960Y-97172763D01*
X165864994Y-97466765D01*
X166631642Y-97467434D01*
X167340188Y-97174668D01*
X167394620Y-97120331D01*
X167446960Y-97172763D01*
X168154994Y-97466765D01*
X168921642Y-97467434D01*
X169630188Y-97174668D01*
X169684620Y-97120331D01*
X169736960Y-97172763D01*
X170444994Y-97466765D01*
X171206392Y-97467429D01*
X171121501Y-97552173D01*
X170873283Y-98149948D01*
X170872718Y-98797209D01*
X171119892Y-99395416D01*
X171373000Y-99648966D01*
X171373000Y-101000000D01*
X171496848Y-101622626D01*
X171849537Y-102150463D01*
X173348534Y-103649459D01*
X173577175Y-103878499D01*
X174174950Y-104126717D01*
X174822211Y-104127282D01*
X175420418Y-103880108D01*
X175534419Y-103766305D01*
X175565906Y-103933641D01*
X175812731Y-104317219D01*
X176189344Y-104574548D01*
X176636400Y-104665079D01*
X178363600Y-104665079D01*
X178781241Y-104586494D01*
X179164819Y-104339669D01*
X179409518Y-103981541D01*
X179665209Y-104104709D01*
X179680974Y-104107358D01*
X179913000Y-103986217D01*
X179913000Y-102627000D01*
X180167000Y-102627000D01*
X180167000Y-103986217D01*
X180399026Y-104107358D01*
X180414791Y-104104709D01*
X180942036Y-103850732D01*
X181310000Y-103438892D01*
X181677964Y-103850732D01*
X182205209Y-104104709D01*
X182220974Y-104107358D01*
X182453000Y-103986217D01*
X182453000Y-102627000D01*
X180167000Y-102627000D01*
X179913000Y-102627000D01*
X179893000Y-102627000D01*
X179893000Y-102373000D01*
X179913000Y-102373000D01*
X179913000Y-101013783D01*
X180167000Y-101013783D01*
X180167000Y-102373000D01*
X182453000Y-102373000D01*
X182453000Y-101013783D01*
X182220974Y-100892642D01*
X182205209Y-100895291D01*
X181677964Y-101149268D01*
X181310000Y-101561108D01*
X180942036Y-101149268D01*
X180414791Y-100895291D01*
X180399026Y-100892642D01*
X180167000Y-101013783D01*
X179913000Y-101013783D01*
X179680974Y-100892642D01*
X179665209Y-100895291D01*
X179404749Y-101020756D01*
X179187269Y-100682781D01*
X178810656Y-100425452D01*
X178363600Y-100334921D01*
X176636400Y-100334921D01*
X176218759Y-100413506D01*
X175835181Y-100660331D01*
X175577852Y-101036944D01*
X175537472Y-101236348D01*
X175422825Y-101121501D01*
X175422143Y-101121218D01*
X174627000Y-100326074D01*
X174627000Y-98975003D01*
X174627001Y-98974998D01*
X174503152Y-98352372D01*
X174150463Y-97824535D01*
X173650893Y-97324965D01*
X173422825Y-97096499D01*
X172825050Y-96848281D01*
X172247651Y-96847777D01*
X172462763Y-96633040D01*
X172756765Y-95925006D01*
X172757434Y-95158358D01*
X172464668Y-94449812D01*
X171923040Y-93907237D01*
X171215006Y-93613235D01*
X170989638Y-93613038D01*
X171132064Y-93216800D01*
X171104879Y-92646530D01*
X170997480Y-92387247D01*
X171211642Y-92387434D01*
X171920188Y-92094668D01*
X172462763Y-91553040D01*
X172756765Y-90845006D01*
X172757392Y-90127000D01*
X177180237Y-90127000D01*
X176712248Y-90320369D01*
X175822832Y-91208234D01*
X175340890Y-92368879D01*
X175339793Y-93625607D01*
X175819709Y-94787092D01*
X176707574Y-95676508D01*
X177868219Y-96158450D01*
X179124947Y-96159547D01*
X180286432Y-95679631D01*
X181175848Y-94791766D01*
X181500203Y-94010633D01*
X181821029Y-94787092D01*
X182708894Y-95676508D01*
X183869539Y-96158450D01*
X185126267Y-96159547D01*
X186287752Y-95679631D01*
X187177168Y-94791766D01*
X187659110Y-93631121D01*
X187659850Y-92783200D01*
X190077936Y-92783200D01*
X190105121Y-93353470D01*
X190271053Y-93754065D01*
X190517183Y-93828212D01*
X191345395Y-93000000D01*
X190517183Y-92171788D01*
X190271053Y-92245935D01*
X190077936Y-92783200D01*
X187659850Y-92783200D01*
X187660207Y-92374393D01*
X187180291Y-91212908D01*
X186292426Y-90323492D01*
X185819221Y-90127000D01*
X190743190Y-90127000D01*
X190742566Y-90841642D01*
X191035332Y-91550188D01*
X191096314Y-91611277D01*
X190770935Y-91746053D01*
X190696788Y-91992183D01*
X191525000Y-92820395D01*
X191539143Y-92806253D01*
X191718748Y-92985858D01*
X191704605Y-93000000D01*
X191718748Y-93014143D01*
X191539143Y-93193748D01*
X191525000Y-93179605D01*
X190696788Y-94007817D01*
X190770935Y-94253947D01*
X191108897Y-94375425D01*
X191037237Y-94446960D01*
X190743235Y-95154994D01*
X190742566Y-95921642D01*
X190965236Y-96460543D01*
X190579582Y-96619892D01*
X190121501Y-97077175D01*
X190000008Y-97369762D01*
X189880108Y-97079582D01*
X189422825Y-96621501D01*
X188825050Y-96373283D01*
X188177789Y-96372718D01*
X187579582Y-96619892D01*
X187121501Y-97077175D01*
X186873283Y-97674950D01*
X186872718Y-98322211D01*
X186873000Y-98322893D01*
X186873000Y-101415026D01*
X186527567Y-100898049D01*
X185881770Y-100466541D01*
X185120000Y-100315016D01*
X184358230Y-100466541D01*
X183712433Y-100898049D01*
X183517816Y-101189314D01*
X183482036Y-101149268D01*
X182954791Y-100895291D01*
X182939026Y-100892642D01*
X182707000Y-101013783D01*
X182707000Y-102373000D01*
X182727000Y-102373000D01*
X182727000Y-102627000D01*
X182707000Y-102627000D01*
X182707000Y-103986217D01*
X182939026Y-104107358D01*
X182954791Y-104104709D01*
X183482036Y-103850732D01*
X183517816Y-103810686D01*
X183712433Y-104101951D01*
X184358230Y-104533459D01*
X185120000Y-104684984D01*
X185881770Y-104533459D01*
X186527567Y-104101951D01*
X186939912Y-103484833D01*
X187119892Y-103920418D01*
X187577175Y-104378499D01*
X188174950Y-104626717D01*
X188822211Y-104627282D01*
X189420418Y-104380108D01*
X189878499Y-103922825D01*
X190126717Y-103325050D01*
X190127121Y-102861913D01*
X192394816Y-102861913D01*
X192588046Y-103414320D01*
X192977964Y-103850732D01*
X193505209Y-104104709D01*
X193520974Y-104107358D01*
X193753000Y-103986217D01*
X193753000Y-102627000D01*
X192539076Y-102627000D01*
X192394816Y-102861913D01*
X190127121Y-102861913D01*
X190127282Y-102677789D01*
X190127000Y-102677107D01*
X190127000Y-102138087D01*
X192394816Y-102138087D01*
X192539076Y-102373000D01*
X193753000Y-102373000D01*
X193753000Y-101013783D01*
X194007000Y-101013783D01*
X194007000Y-102373000D01*
X194027000Y-102373000D01*
X194027000Y-102627000D01*
X194007000Y-102627000D01*
X194007000Y-103986217D01*
X194239026Y-104107358D01*
X194254791Y-104104709D01*
X194782036Y-103850732D01*
X194817816Y-103810686D01*
X195012433Y-104101951D01*
X195658230Y-104533459D01*
X196420000Y-104684984D01*
X197181770Y-104533459D01*
X197690000Y-104193870D01*
X198198230Y-104533459D01*
X198960000Y-104684984D01*
X199721770Y-104533459D01*
X199927764Y-104395818D01*
X200189344Y-104574548D01*
X200636400Y-104665079D01*
X202363600Y-104665079D01*
X202781241Y-104586494D01*
X203164819Y-104339669D01*
X203422148Y-103963056D01*
X203512679Y-103516000D01*
X203512679Y-101484000D01*
X203434094Y-101066359D01*
X203187269Y-100682781D01*
X202810656Y-100425452D01*
X202363600Y-100334921D01*
X200636400Y-100334921D01*
X200218759Y-100413506D01*
X199925152Y-100602436D01*
X199721770Y-100466541D01*
X198960000Y-100315016D01*
X198198230Y-100466541D01*
X197690000Y-100806130D01*
X197181770Y-100466541D01*
X196420000Y-100315016D01*
X195658230Y-100466541D01*
X195012433Y-100898049D01*
X194817816Y-101189314D01*
X194782036Y-101149268D01*
X194254791Y-100895291D01*
X194239026Y-100892642D01*
X194007000Y-101013783D01*
X193753000Y-101013783D01*
X193520974Y-100892642D01*
X193505209Y-100895291D01*
X192977964Y-101149268D01*
X192588046Y-101585680D01*
X192394816Y-102138087D01*
X190127000Y-102138087D01*
X190127000Y-98927538D01*
X190577175Y-99378499D01*
X191174950Y-99626717D01*
X191822211Y-99627282D01*
X192246426Y-99452000D01*
X193754185Y-99452000D01*
X194174950Y-99626717D01*
X194822211Y-99627282D01*
X195420418Y-99380108D01*
X195878499Y-98922825D01*
X196126717Y-98325050D01*
X196127282Y-97677789D01*
X195938470Y-97220829D01*
X196050188Y-97174668D01*
X196104620Y-97120331D01*
X196156960Y-97172763D01*
X196864994Y-97466765D01*
X197631642Y-97467434D01*
X198340188Y-97174668D01*
X198394620Y-97120331D01*
X198446960Y-97172763D01*
X199154994Y-97466765D01*
X199921642Y-97467434D01*
X200630188Y-97174668D01*
X200684620Y-97120331D01*
X200736960Y-97172763D01*
X201444994Y-97466765D01*
X202211642Y-97467434D01*
X202920188Y-97174668D01*
X203462763Y-96633040D01*
X203756765Y-95925006D01*
X203757434Y-95158358D01*
X203464668Y-94449812D01*
X202923040Y-93907237D01*
X202244802Y-93625607D01*
X206339793Y-93625607D01*
X206819709Y-94787092D01*
X207707574Y-95676508D01*
X208868219Y-96158450D01*
X210124947Y-96159547D01*
X211286432Y-95679631D01*
X212175848Y-94791766D01*
X212657790Y-93631121D01*
X212658887Y-92374393D01*
X212178971Y-91212908D01*
X211291106Y-90323492D01*
X210130461Y-89841550D01*
X208873733Y-89840453D01*
X207712248Y-90320369D01*
X206822832Y-91208234D01*
X206340890Y-92368879D01*
X206339793Y-93625607D01*
X202244802Y-93625607D01*
X202215006Y-93613235D01*
X201989638Y-93613038D01*
X202132064Y-93216800D01*
X202104879Y-92646530D01*
X201997480Y-92387247D01*
X202211642Y-92387434D01*
X202920188Y-92094668D01*
X203462763Y-91553040D01*
X203756765Y-90845006D01*
X203757434Y-90078358D01*
X203464668Y-89369812D01*
X202923040Y-88827237D01*
X202215006Y-88533235D01*
X201448358Y-88532566D01*
X200739812Y-88825332D01*
X200685380Y-88879669D01*
X200633040Y-88827237D01*
X199925006Y-88533235D01*
X199158358Y-88532566D01*
X198449812Y-88825332D01*
X198395380Y-88879669D01*
X198343040Y-88827237D01*
X197635006Y-88533235D01*
X196868358Y-88532566D01*
X196391218Y-88729717D01*
X196110463Y-88309537D01*
X195150463Y-87349537D01*
X194622626Y-86996848D01*
X194000000Y-86873000D01*
X167500000Y-86873000D01*
X166877374Y-86996848D01*
X166349537Y-87349537D01*
X165099537Y-88599537D01*
X164970339Y-88792896D01*
X164345006Y-88533235D01*
X163578358Y-88532566D01*
X162869812Y-88825332D01*
X162815380Y-88879669D01*
X162763040Y-88827237D01*
X162055006Y-88533235D01*
X161288358Y-88532566D01*
X160579812Y-88825332D01*
X160037237Y-89366960D01*
X159743235Y-90074994D01*
X159742566Y-90841642D01*
X160035332Y-91550188D01*
X160096314Y-91611277D01*
X159770935Y-91746053D01*
X159696788Y-91992183D01*
X160525000Y-92820395D01*
X160539143Y-92806253D01*
X160718748Y-92985858D01*
X160704605Y-93000000D01*
X160718748Y-93014143D01*
X160539143Y-93193748D01*
X160525000Y-93179605D01*
X159696788Y-94007817D01*
X159770935Y-94253947D01*
X160108897Y-94375425D01*
X160037237Y-94446960D01*
X159743235Y-95154994D01*
X159742566Y-95921642D01*
X160035332Y-96630188D01*
X160551685Y-97147444D01*
X160291501Y-97407175D01*
X160043283Y-98004950D01*
X160042718Y-98652211D01*
X160289892Y-99250418D01*
X160747175Y-99708499D01*
X161048000Y-99833413D01*
X161048000Y-100000000D01*
X161158527Y-100555657D01*
X161354533Y-100849000D01*
X161252998Y-100849000D01*
X161252998Y-101013782D01*
X161020974Y-100892642D01*
X161006667Y-100895046D01*
X161003152Y-100877374D01*
X160650463Y-100349537D01*
X158150893Y-97849967D01*
X157922825Y-97621501D01*
X157325050Y-97373283D01*
X156677789Y-97372718D01*
X156079582Y-97619892D01*
X155621501Y-98077175D01*
X155373283Y-98674950D01*
X155372718Y-99322211D01*
X155619892Y-99920418D01*
X156077175Y-100378499D01*
X156077856Y-100378782D01*
X157873000Y-102173926D01*
X157873000Y-103499153D01*
X157872718Y-103822211D01*
X158119892Y-104420418D01*
X158577175Y-104878499D01*
X159119145Y-105103545D01*
X159079582Y-105119892D01*
X158621501Y-105577175D01*
X158373283Y-106174950D01*
X158372888Y-106626911D01*
X158279987Y-106588335D01*
X157513379Y-106587666D01*
X156804869Y-106880416D01*
X156625162Y-107059810D01*
X156447984Y-106882322D01*
X155739987Y-106588335D01*
X154973379Y-106587666D01*
X154264869Y-106880416D01*
X154085162Y-107059810D01*
X153907984Y-106882322D01*
X153199987Y-106588335D01*
X152433379Y-106587666D01*
X151724869Y-106880416D01*
X151182323Y-107422017D01*
X150888336Y-108130014D01*
X150887667Y-108896622D01*
X151180417Y-109605132D01*
X151722018Y-110147678D01*
X152430015Y-110441665D01*
X153196623Y-110442334D01*
X153905133Y-110149584D01*
X154084840Y-109970190D01*
X154262018Y-110147678D01*
X154970015Y-110441665D01*
X155736623Y-110442334D01*
X156445133Y-110149584D01*
X156624840Y-109970190D01*
X156802018Y-110147678D01*
X157510015Y-110441665D01*
X158276623Y-110442334D01*
X158985133Y-110149584D01*
X159164840Y-109970190D01*
X159342018Y-110147678D01*
X160050015Y-110441665D01*
X160816623Y-110442334D01*
X161525133Y-110149584D01*
X161704840Y-109970190D01*
X161882018Y-110147678D01*
X162590015Y-110441665D01*
X163356623Y-110442334D01*
X164065133Y-110149584D01*
X164244840Y-109970190D01*
X164422018Y-110147678D01*
X165130015Y-110441665D01*
X165896623Y-110442334D01*
X166605133Y-110149584D01*
X166784840Y-109970190D01*
X166962018Y-110147678D01*
X167670015Y-110441665D01*
X168436623Y-110442334D01*
X169145133Y-110149584D01*
X169324840Y-109970190D01*
X169502018Y-110147678D01*
X170210015Y-110441665D01*
X170976623Y-110442334D01*
X171685133Y-110149584D01*
X171864840Y-109970190D01*
X172042018Y-110147678D01*
X172750015Y-110441665D01*
X173516623Y-110442334D01*
X174225133Y-110149584D01*
X174404840Y-109970190D01*
X174582018Y-110147678D01*
X175290015Y-110441665D01*
X176056623Y-110442334D01*
X176765133Y-110149584D01*
X176944840Y-109970190D01*
X177122018Y-110147678D01*
X177830015Y-110441665D01*
X178596623Y-110442334D01*
X179305133Y-110149584D01*
X179484840Y-109970190D01*
X179662018Y-110147678D01*
X180370015Y-110441665D01*
X181136623Y-110442334D01*
X181845133Y-110149584D01*
X182024840Y-109970190D01*
X182202018Y-110147678D01*
X182910015Y-110441665D01*
X183676623Y-110442334D01*
X184385133Y-110149584D01*
X184564840Y-109970190D01*
X184742018Y-110147678D01*
X185450015Y-110441665D01*
X186216623Y-110442334D01*
X186925133Y-110149584D01*
X187467679Y-109607983D01*
X187471977Y-109597632D01*
X187546862Y-109522747D01*
X187620996Y-109768864D01*
X188158224Y-109961965D01*
X188728455Y-109934778D01*
X189129006Y-109768864D01*
X189203140Y-109522747D01*
X189276820Y-109596427D01*
X189280417Y-109605132D01*
X189822018Y-110147678D01*
X190530015Y-110441665D01*
X191296623Y-110442334D01*
X192005133Y-110149584D01*
X192184840Y-109970190D01*
X192362018Y-110147678D01*
X193070015Y-110441665D01*
X193836623Y-110442334D01*
X194545133Y-110149584D01*
X194724840Y-109970190D01*
X194902018Y-110147678D01*
X195610015Y-110441665D01*
X196376623Y-110442334D01*
X197085133Y-110149584D01*
X197264840Y-109970190D01*
X197442018Y-110147678D01*
X198150015Y-110441665D01*
X198916623Y-110442334D01*
X199625133Y-110149584D01*
X199804840Y-109970190D01*
X199982018Y-110147678D01*
X200690015Y-110441665D01*
X201456623Y-110442334D01*
X202165133Y-110149584D01*
X202344840Y-109970190D01*
X202522018Y-110147678D01*
X203230015Y-110441665D01*
X203996623Y-110442334D01*
X204705133Y-110149584D01*
X204884840Y-109970190D01*
X205062018Y-110147678D01*
X205770015Y-110441665D01*
X206536623Y-110442334D01*
X207245133Y-110149584D01*
X207424840Y-109970190D01*
X207602018Y-110147678D01*
X208310015Y-110441665D01*
X209076623Y-110442334D01*
X209785133Y-110149584D01*
X209964840Y-109970190D01*
X210142018Y-110147678D01*
X210850015Y-110441665D01*
X211373000Y-110442121D01*
X211373000Y-120500000D01*
X211496848Y-121122626D01*
X211849537Y-121650463D01*
X212316718Y-122117644D01*
X211619987Y-121828335D01*
X210853379Y-121827666D01*
X210144869Y-122120416D01*
X209965162Y-122299810D01*
X209787984Y-122122322D01*
X209079987Y-121828335D01*
X208313379Y-121827666D01*
X207604869Y-122120416D01*
X207425162Y-122299810D01*
X207247984Y-122122322D01*
X206539987Y-121828335D01*
X205773379Y-121827666D01*
X205064869Y-122120416D01*
X204885162Y-122299810D01*
X204707984Y-122122322D01*
X203999987Y-121828335D01*
X203233379Y-121827666D01*
X202524869Y-122120416D01*
X202345162Y-122299810D01*
X202167984Y-122122322D01*
X201459987Y-121828335D01*
X200693379Y-121827666D01*
X199984869Y-122120416D01*
X199805162Y-122299810D01*
X199627984Y-122122322D01*
X198919987Y-121828335D01*
X198153379Y-121827666D01*
X197444869Y-122120416D01*
X197265162Y-122299810D01*
X197087984Y-122122322D01*
X196379987Y-121828335D01*
X195613379Y-121827666D01*
X194904869Y-122120416D01*
X194725162Y-122299810D01*
X194547984Y-122122322D01*
X193839987Y-121828335D01*
X193073379Y-121827666D01*
X192364869Y-122120416D01*
X192185162Y-122299810D01*
X192007984Y-122122322D01*
X191299987Y-121828335D01*
X190533379Y-121827666D01*
X189824869Y-122120416D01*
X189645162Y-122299810D01*
X189467984Y-122122322D01*
X188759987Y-121828335D01*
X187993379Y-121827666D01*
X187284869Y-122120416D01*
X187105162Y-122299810D01*
X186927984Y-122122322D01*
X186219987Y-121828335D01*
X185453379Y-121827666D01*
X184744869Y-122120416D01*
X184565162Y-122299810D01*
X184387984Y-122122322D01*
X183679987Y-121828335D01*
X182913379Y-121827666D01*
X182204869Y-122120416D01*
X182025162Y-122299810D01*
X181847984Y-122122322D01*
X181139987Y-121828335D01*
X180373379Y-121827666D01*
X179664869Y-122120416D01*
X179485162Y-122299810D01*
X179307984Y-122122322D01*
X178599987Y-121828335D01*
X177833379Y-121827666D01*
X177124869Y-122120416D01*
X176945162Y-122299810D01*
X176767984Y-122122322D01*
X176059987Y-121828335D01*
X175293379Y-121827666D01*
X174584869Y-122120416D01*
X174405162Y-122299810D01*
X174227984Y-122122322D01*
X173519987Y-121828335D01*
X172753379Y-121827666D01*
X172044869Y-122120416D01*
X171865162Y-122299810D01*
X171687984Y-122122322D01*
X170979987Y-121828335D01*
X170213379Y-121827666D01*
X169504869Y-122120416D01*
X169325162Y-122299810D01*
X169147984Y-122122322D01*
X168439987Y-121828335D01*
X167673379Y-121827666D01*
X166964869Y-122120416D01*
X166785162Y-122299810D01*
X166607984Y-122122322D01*
X165899987Y-121828335D01*
X165133379Y-121827666D01*
X164424869Y-122120416D01*
X164245162Y-122299810D01*
X164067984Y-122122322D01*
X163359987Y-121828335D01*
X162593379Y-121827666D01*
X161884869Y-122120416D01*
X161705162Y-122299810D01*
X161527984Y-122122322D01*
X160819987Y-121828335D01*
X160053379Y-121827666D01*
X159344869Y-122120416D01*
X159165162Y-122299810D01*
X158987984Y-122122322D01*
X158279987Y-121828335D01*
X157513379Y-121827666D01*
X156804869Y-122120416D01*
X156625162Y-122299810D01*
X156447984Y-122122322D01*
X155739987Y-121828335D01*
X154973379Y-121827666D01*
X154264869Y-122120416D01*
X153970032Y-122414740D01*
X153741310Y-122320000D01*
X153100751Y-122320000D01*
X152942001Y-122478750D01*
X152942001Y-123628000D01*
X152962001Y-123628000D01*
X152962001Y-123882000D01*
X152942001Y-123882000D01*
X152942001Y-125031250D01*
X153100751Y-125190000D01*
X153741310Y-125190000D01*
X153970087Y-125095237D01*
X154262018Y-125387678D01*
X154970015Y-125681665D01*
X155736623Y-125682334D01*
X155872889Y-125626030D01*
X155872718Y-125822211D01*
X156119892Y-126420418D01*
X156477791Y-126778942D01*
X156177405Y-126979653D01*
X155941035Y-127333406D01*
X155737423Y-127148959D01*
X155349039Y-126988096D01*
X155127000Y-127110085D01*
X155127000Y-128253000D01*
X155147000Y-128253000D01*
X155147000Y-128507000D01*
X155127000Y-128507000D01*
X155127000Y-128527000D01*
X154873000Y-128527000D01*
X154873000Y-128507000D01*
X153729371Y-128507000D01*
X153608086Y-128729041D01*
X153847611Y-129235134D01*
X154262577Y-129611041D01*
X154650961Y-129771904D01*
X154703551Y-129743011D01*
X153973281Y-130473281D01*
X153658527Y-130944343D01*
X153622268Y-131126630D01*
X153548000Y-131500000D01*
X153548000Y-134280311D01*
X153398781Y-134376331D01*
X153141452Y-134752944D01*
X153050921Y-135200000D01*
X153050921Y-136800000D01*
X153129506Y-137217641D01*
X153376331Y-137601219D01*
X153752944Y-137858548D01*
X154200000Y-137949079D01*
X155800000Y-137949079D01*
X156217641Y-137870494D01*
X156601219Y-137623669D01*
X156854731Y-137252642D01*
X157190961Y-137391904D01*
X157413000Y-137269915D01*
X157413000Y-136127000D01*
X157393000Y-136127000D01*
X157393000Y-135873000D01*
X157413000Y-135873000D01*
X157413000Y-134730085D01*
X157190961Y-134608096D01*
X156849394Y-134749568D01*
X156623669Y-134398781D01*
X156452000Y-134281484D01*
X156452000Y-132101438D01*
X157101438Y-131452000D01*
X163500000Y-131452000D01*
X163625128Y-131427110D01*
X163782603Y-131427248D01*
X163879942Y-131387028D01*
X163973281Y-131526719D01*
X164048000Y-131601438D01*
X164048000Y-131873041D01*
X164000001Y-131872999D01*
X163999999Y-131872999D01*
X163677789Y-131872718D01*
X163079582Y-132119892D01*
X162826032Y-132373000D01*
X161500847Y-132373000D01*
X161177789Y-132372718D01*
X160579582Y-132619892D01*
X160121501Y-133077175D01*
X159873283Y-133674950D01*
X159872933Y-134076436D01*
X159342569Y-134181932D01*
X158717405Y-134599653D01*
X158481035Y-134953406D01*
X158277423Y-134768959D01*
X157889039Y-134608096D01*
X157667000Y-134730085D01*
X157667000Y-135873000D01*
X157687000Y-135873000D01*
X157687000Y-136127000D01*
X157667000Y-136127000D01*
X157667000Y-137269915D01*
X157889039Y-137391904D01*
X158277423Y-137231041D01*
X158481035Y-137046594D01*
X158717405Y-137400347D01*
X159342569Y-137818068D01*
X160080000Y-137964752D01*
X160817431Y-137818068D01*
X161350000Y-137462217D01*
X161882569Y-137818068D01*
X162620000Y-137964752D01*
X163357431Y-137818068D01*
X163982595Y-137400347D01*
X164400316Y-136775183D01*
X164547000Y-136037752D01*
X164547000Y-135962248D01*
X164463291Y-135541415D01*
X164619892Y-135920418D01*
X165077175Y-136378499D01*
X165674950Y-136626717D01*
X166322211Y-136627282D01*
X166421850Y-136586112D01*
X166432433Y-136601951D01*
X167078230Y-137033459D01*
X167840000Y-137184984D01*
X168601770Y-137033459D01*
X169110000Y-136693870D01*
X169618230Y-137033459D01*
X170380000Y-137184984D01*
X171141770Y-137033459D01*
X171787567Y-136601951D01*
X171982184Y-136310686D01*
X172017964Y-136350732D01*
X172545209Y-136604709D01*
X172560974Y-136607358D01*
X172793000Y-136486217D01*
X172793000Y-135127000D01*
X172773000Y-135127000D01*
X172773000Y-134873000D01*
X172793000Y-134873000D01*
X172793000Y-133513783D01*
X172560974Y-133392642D01*
X172545209Y-133395291D01*
X172017964Y-133649268D01*
X171982184Y-133689314D01*
X171929906Y-133611074D01*
X171952000Y-133500000D01*
X171927110Y-133374872D01*
X171927248Y-133217397D01*
X171866582Y-133070574D01*
X171841473Y-132944344D01*
X171770593Y-132838264D01*
X171710457Y-132692725D01*
X171598224Y-132580296D01*
X171526719Y-132473281D01*
X169575330Y-130521892D01*
X169739026Y-130607358D01*
X169754791Y-130604709D01*
X170282036Y-130350732D01*
X170317816Y-130310686D01*
X170512433Y-130601951D01*
X171158230Y-131033459D01*
X171920000Y-131184984D01*
X172681770Y-131033459D01*
X173190000Y-130693870D01*
X173698230Y-131033459D01*
X174460000Y-131184984D01*
X175221770Y-131033459D01*
X175427764Y-130895818D01*
X175689344Y-131074548D01*
X176136400Y-131165079D01*
X177863600Y-131165079D01*
X178281241Y-131086494D01*
X178664819Y-130839669D01*
X178922148Y-130463056D01*
X179012679Y-130016000D01*
X179012679Y-129361913D01*
X180894816Y-129361913D01*
X181088046Y-129914320D01*
X181477964Y-130350732D01*
X182005209Y-130604709D01*
X182020974Y-130607358D01*
X182253000Y-130486217D01*
X182253000Y-129127000D01*
X181039076Y-129127000D01*
X180894816Y-129361913D01*
X179012679Y-129361913D01*
X179012679Y-128638087D01*
X180894816Y-128638087D01*
X181039076Y-128873000D01*
X182253000Y-128873000D01*
X182253000Y-127513783D01*
X182507000Y-127513783D01*
X182507000Y-128873000D01*
X182527000Y-128873000D01*
X182527000Y-129127000D01*
X182507000Y-129127000D01*
X182507000Y-130486217D01*
X182739026Y-130607358D01*
X182754791Y-130604709D01*
X183282036Y-130350732D01*
X183317816Y-130310686D01*
X183512433Y-130601951D01*
X184158230Y-131033459D01*
X184920000Y-131184984D01*
X185681770Y-131033459D01*
X186190000Y-130693870D01*
X186698230Y-131033459D01*
X187460000Y-131184984D01*
X188221770Y-131033459D01*
X188427764Y-130895818D01*
X188689344Y-131074548D01*
X189136400Y-131165079D01*
X190863600Y-131165079D01*
X191281241Y-131086494D01*
X191664819Y-130839669D01*
X191922148Y-130463056D01*
X192012679Y-130016000D01*
X192012679Y-129421230D01*
X194372632Y-129421230D01*
X194695766Y-130203274D01*
X195293578Y-130802131D01*
X196075057Y-131126630D01*
X196921230Y-131127368D01*
X197703274Y-130804234D01*
X198302131Y-130206422D01*
X198626630Y-129424943D01*
X198626633Y-129421230D01*
X203372632Y-129421230D01*
X203695766Y-130203274D01*
X204293578Y-130802131D01*
X205075057Y-131126630D01*
X205921230Y-131127368D01*
X206703274Y-130804234D01*
X207302131Y-130206422D01*
X207626630Y-129424943D01*
X207627368Y-128578770D01*
X207304234Y-127796726D01*
X206706422Y-127197869D01*
X205924943Y-126873370D01*
X205078770Y-126872632D01*
X204296726Y-127195766D01*
X203697869Y-127793578D01*
X203373370Y-128575057D01*
X203372632Y-129421230D01*
X198626633Y-129421230D01*
X198627368Y-128578770D01*
X198304234Y-127796726D01*
X197706422Y-127197869D01*
X196924943Y-126873370D01*
X196078770Y-126872632D01*
X195296726Y-127195766D01*
X194697869Y-127793578D01*
X194373370Y-128575057D01*
X194372632Y-129421230D01*
X192012679Y-129421230D01*
X192012679Y-127984000D01*
X191934094Y-127566359D01*
X191687269Y-127182781D01*
X191310656Y-126925452D01*
X190863600Y-126834921D01*
X189136400Y-126834921D01*
X188718759Y-126913506D01*
X188425152Y-127102436D01*
X188221770Y-126966541D01*
X187460000Y-126815016D01*
X186698230Y-126966541D01*
X186190000Y-127306130D01*
X185681770Y-126966541D01*
X184920000Y-126815016D01*
X184158230Y-126966541D01*
X183512433Y-127398049D01*
X183317816Y-127689314D01*
X183282036Y-127649268D01*
X182754791Y-127395291D01*
X182739026Y-127392642D01*
X182507000Y-127513783D01*
X182253000Y-127513783D01*
X182020974Y-127392642D01*
X182005209Y-127395291D01*
X181477964Y-127649268D01*
X181088046Y-128085680D01*
X180894816Y-128638087D01*
X179012679Y-128638087D01*
X179012679Y-127984000D01*
X178934094Y-127566359D01*
X178687269Y-127182781D01*
X178310656Y-126925452D01*
X177863600Y-126834921D01*
X176136400Y-126834921D01*
X175718759Y-126913506D01*
X175425152Y-127102436D01*
X175221770Y-126966541D01*
X174460000Y-126815016D01*
X173698230Y-126966541D01*
X173190000Y-127306130D01*
X172681770Y-126966541D01*
X171920000Y-126815016D01*
X171158230Y-126966541D01*
X170512433Y-127398049D01*
X170317816Y-127689314D01*
X170282036Y-127649268D01*
X169754791Y-127395291D01*
X169739026Y-127392642D01*
X169507000Y-127513783D01*
X169507000Y-128873000D01*
X169527000Y-128873000D01*
X169527000Y-129127000D01*
X169507000Y-129127000D01*
X169507000Y-129147000D01*
X169253000Y-129147000D01*
X169253000Y-129127000D01*
X169233000Y-129127000D01*
X169233000Y-128873000D01*
X169253000Y-128873000D01*
X169253000Y-127513783D01*
X169020974Y-127392642D01*
X169005209Y-127395291D01*
X168477964Y-127649268D01*
X168088046Y-128085680D01*
X167948780Y-128483814D01*
X167841473Y-127944344D01*
X167841473Y-127944343D01*
X167526719Y-127473281D01*
X165735632Y-125682194D01*
X165896623Y-125682334D01*
X166605133Y-125389584D01*
X166784840Y-125210190D01*
X166962018Y-125387678D01*
X167670015Y-125681665D01*
X168436623Y-125682334D01*
X169145133Y-125389584D01*
X169324840Y-125210190D01*
X169502018Y-125387678D01*
X170210015Y-125681665D01*
X170976623Y-125682334D01*
X171685133Y-125389584D01*
X171864840Y-125210190D01*
X172042018Y-125387678D01*
X172750015Y-125681665D01*
X173516623Y-125682334D01*
X174225133Y-125389584D01*
X174404840Y-125210190D01*
X174582018Y-125387678D01*
X175290015Y-125681665D01*
X176056623Y-125682334D01*
X176765133Y-125389584D01*
X176944840Y-125210190D01*
X177122018Y-125387678D01*
X177830015Y-125681665D01*
X178596623Y-125682334D01*
X179305133Y-125389584D01*
X179484840Y-125210190D01*
X179662018Y-125387678D01*
X180370015Y-125681665D01*
X181136623Y-125682334D01*
X181845133Y-125389584D01*
X182024840Y-125210190D01*
X182202018Y-125387678D01*
X182910015Y-125681665D01*
X183676623Y-125682334D01*
X184385133Y-125389584D01*
X184564840Y-125210190D01*
X184742018Y-125387678D01*
X185450015Y-125681665D01*
X186216623Y-125682334D01*
X186925133Y-125389584D01*
X187104840Y-125210190D01*
X187282018Y-125387678D01*
X187990015Y-125681665D01*
X188756623Y-125682334D01*
X189465133Y-125389584D01*
X189644840Y-125210190D01*
X189822018Y-125387678D01*
X190530015Y-125681665D01*
X191296623Y-125682334D01*
X192005133Y-125389584D01*
X192184840Y-125210190D01*
X192362018Y-125387678D01*
X193070015Y-125681665D01*
X193836623Y-125682334D01*
X194545133Y-125389584D01*
X194724840Y-125210190D01*
X194902018Y-125387678D01*
X195610015Y-125681665D01*
X196376623Y-125682334D01*
X197085133Y-125389584D01*
X197264840Y-125210190D01*
X197442018Y-125387678D01*
X198150015Y-125681665D01*
X198916623Y-125682334D01*
X199625133Y-125389584D01*
X199804840Y-125210190D01*
X199982018Y-125387678D01*
X200690015Y-125681665D01*
X201456623Y-125682334D01*
X202165133Y-125389584D01*
X202344840Y-125210190D01*
X202522018Y-125387678D01*
X203230015Y-125681665D01*
X203996623Y-125682334D01*
X204705133Y-125389584D01*
X204884840Y-125210190D01*
X205062018Y-125387678D01*
X205770015Y-125681665D01*
X206536623Y-125682334D01*
X207245133Y-125389584D01*
X207424840Y-125210190D01*
X207602018Y-125387678D01*
X208310015Y-125681665D01*
X209076623Y-125682334D01*
X209785133Y-125389584D01*
X209964840Y-125210190D01*
X210142018Y-125387678D01*
X210850015Y-125681665D01*
X211616623Y-125682334D01*
X212325133Y-125389584D01*
X212867679Y-124847983D01*
X213161666Y-124139986D01*
X213162335Y-123373378D01*
X212873558Y-122674484D01*
X213373000Y-123173926D01*
X213373000Y-133826074D01*
X210326074Y-136873000D01*
X207945917Y-136873000D01*
X208214989Y-136761822D01*
X208799768Y-136178062D01*
X209116639Y-135414953D01*
X209117360Y-134588672D01*
X208801822Y-133825011D01*
X208218062Y-133240232D01*
X207454953Y-132923361D01*
X206628672Y-132922640D01*
X205865011Y-133238178D01*
X205690561Y-133412324D01*
X205576310Y-133365000D01*
X204785750Y-133365000D01*
X204627000Y-133523750D01*
X204627000Y-134873000D01*
X204647000Y-134873000D01*
X204647000Y-135127000D01*
X204627000Y-135127000D01*
X204627000Y-136476250D01*
X204785750Y-136635000D01*
X205576310Y-136635000D01*
X205690267Y-136587797D01*
X205861938Y-136759768D01*
X206134631Y-136873000D01*
X200445917Y-136873000D01*
X200714989Y-136761822D01*
X201299768Y-136178062D01*
X201616639Y-135414953D01*
X201616751Y-135285750D01*
X202915000Y-135285750D01*
X202915000Y-136126309D01*
X203011673Y-136359698D01*
X203190301Y-136538327D01*
X203423690Y-136635000D01*
X204214250Y-136635000D01*
X204373000Y-136476250D01*
X204373000Y-135127000D01*
X203073750Y-135127000D01*
X202915000Y-135285750D01*
X201616751Y-135285750D01*
X201617360Y-134588672D01*
X201321937Y-133873691D01*
X202915000Y-133873691D01*
X202915000Y-134714250D01*
X203073750Y-134873000D01*
X204373000Y-134873000D01*
X204373000Y-133523750D01*
X204214250Y-133365000D01*
X203423690Y-133365000D01*
X203190301Y-133461673D01*
X203011673Y-133640302D01*
X202915000Y-133873691D01*
X201321937Y-133873691D01*
X201301822Y-133825011D01*
X200718062Y-133240232D01*
X199954953Y-132923361D01*
X199128672Y-132922640D01*
X198365011Y-133238178D01*
X198190561Y-133412324D01*
X198076310Y-133365000D01*
X197285750Y-133365000D01*
X197127000Y-133523750D01*
X197127000Y-134873000D01*
X197147000Y-134873000D01*
X197147000Y-135127000D01*
X197127000Y-135127000D01*
X197127000Y-136476250D01*
X197285750Y-136635000D01*
X198076310Y-136635000D01*
X198190267Y-136587797D01*
X198361938Y-136759768D01*
X198634631Y-136873000D01*
X193036848Y-136873000D01*
X193203274Y-136804234D01*
X193802131Y-136206422D01*
X194126630Y-135424943D01*
X194126751Y-135285750D01*
X195415000Y-135285750D01*
X195415000Y-136126309D01*
X195511673Y-136359698D01*
X195690301Y-136538327D01*
X195923690Y-136635000D01*
X196714250Y-136635000D01*
X196873000Y-136476250D01*
X196873000Y-135127000D01*
X195573750Y-135127000D01*
X195415000Y-135285750D01*
X194126751Y-135285750D01*
X194127368Y-134578770D01*
X193836036Y-133873691D01*
X195415000Y-133873691D01*
X195415000Y-134714250D01*
X195573750Y-134873000D01*
X196873000Y-134873000D01*
X196873000Y-133523750D01*
X196714250Y-133365000D01*
X195923690Y-133365000D01*
X195690301Y-133461673D01*
X195511673Y-133640302D01*
X195415000Y-133873691D01*
X193836036Y-133873691D01*
X193804234Y-133796726D01*
X193206422Y-133197869D01*
X192424943Y-132873370D01*
X191578770Y-132872632D01*
X190796726Y-133195766D01*
X190197869Y-133793578D01*
X189873370Y-134575057D01*
X189872632Y-135421230D01*
X190195766Y-136203274D01*
X190793578Y-136802131D01*
X190964249Y-136873000D01*
X184036848Y-136873000D01*
X184203274Y-136804234D01*
X184802131Y-136206422D01*
X185126630Y-135424943D01*
X185127368Y-134578770D01*
X184804234Y-133796726D01*
X184206422Y-133197869D01*
X183424943Y-132873370D01*
X182578770Y-132872632D01*
X181796726Y-133195766D01*
X181197869Y-133793578D01*
X180873370Y-134575057D01*
X180872632Y-135421230D01*
X181195766Y-136203274D01*
X181793578Y-136802131D01*
X181964249Y-136873000D01*
X179613021Y-136873000D01*
X179664819Y-136839669D01*
X179922148Y-136463056D01*
X180012679Y-136016000D01*
X180012679Y-133984000D01*
X179934094Y-133566359D01*
X179687269Y-133182781D01*
X179310656Y-132925452D01*
X178863600Y-132834921D01*
X177136400Y-132834921D01*
X176718759Y-132913506D01*
X176425152Y-133102436D01*
X176221770Y-132966541D01*
X175460000Y-132815016D01*
X174698230Y-132966541D01*
X174052433Y-133398049D01*
X173857816Y-133689314D01*
X173822036Y-133649268D01*
X173294791Y-133395291D01*
X173279026Y-133392642D01*
X173047000Y-133513783D01*
X173047000Y-134873000D01*
X173067000Y-134873000D01*
X173067000Y-135127000D01*
X173047000Y-135127000D01*
X173047000Y-136486217D01*
X173279026Y-136607358D01*
X173294791Y-136604709D01*
X173822036Y-136350732D01*
X173857816Y-136310686D01*
X173975176Y-136486327D01*
X173873000Y-137000000D01*
X173996848Y-137622626D01*
X174349537Y-138150463D01*
X175849535Y-139650460D01*
X175849537Y-139650463D01*
X176372657Y-140000000D01*
X176377374Y-140003152D01*
X177000000Y-140127000D01*
X211000000Y-140127000D01*
X211622626Y-140003152D01*
X212150463Y-139650463D01*
X214798000Y-137002926D01*
X214798000Y-141798000D01*
X162194635Y-141798000D01*
X162590132Y-141634584D01*
X163132678Y-141092983D01*
X163426665Y-140384986D01*
X163427334Y-139618378D01*
X163134584Y-138909868D01*
X162592983Y-138367322D01*
X161884986Y-138073335D01*
X161118378Y-138072666D01*
X160409868Y-138365416D01*
X159867322Y-138907017D01*
X159573335Y-139615014D01*
X159572666Y-140381622D01*
X159865416Y-141090132D01*
X160407017Y-141632678D01*
X160805155Y-141798000D01*
X150202000Y-141798000D01*
X150202000Y-141007745D01*
X155671861Y-141007745D01*
X155745995Y-141253864D01*
X156283223Y-141446965D01*
X156853454Y-141419778D01*
X157254005Y-141253864D01*
X157328139Y-141007745D01*
X156500000Y-140179605D01*
X155671861Y-141007745D01*
X150202000Y-141007745D01*
X150202000Y-139783223D01*
X155053035Y-139783223D01*
X155080222Y-140353454D01*
X155246136Y-140754005D01*
X155492255Y-140828139D01*
X156320395Y-140000000D01*
X156679605Y-140000000D01*
X157507745Y-140828139D01*
X157753864Y-140754005D01*
X157946965Y-140216777D01*
X157919778Y-139646546D01*
X157753864Y-139245995D01*
X157507745Y-139171861D01*
X156679605Y-140000000D01*
X156320395Y-140000000D01*
X155492255Y-139171861D01*
X155246136Y-139245995D01*
X155053035Y-139783223D01*
X150202000Y-139783223D01*
X150202000Y-138992255D01*
X155671861Y-138992255D01*
X156500000Y-139820395D01*
X157328139Y-138992255D01*
X157254005Y-138746136D01*
X156716777Y-138553035D01*
X156146546Y-138580222D01*
X155745995Y-138746136D01*
X155671861Y-138992255D01*
X150202000Y-138992255D01*
X150202000Y-129430331D01*
X150674950Y-129626717D01*
X151322211Y-129627282D01*
X151920418Y-129380108D01*
X152378499Y-128922825D01*
X152626717Y-128325050D01*
X152626973Y-128030959D01*
X153608086Y-128030959D01*
X153729371Y-128253000D01*
X154873000Y-128253000D01*
X154873000Y-127110085D01*
X154650961Y-126988096D01*
X154262577Y-127148959D01*
X153847611Y-127524866D01*
X153608086Y-128030959D01*
X152626973Y-128030959D01*
X152627282Y-127677789D01*
X152627000Y-127677107D01*
X152627000Y-125092251D01*
X152688001Y-125031250D01*
X152688001Y-123882000D01*
X152668001Y-123882000D01*
X152668001Y-123628000D01*
X152688001Y-123628000D01*
X152688001Y-122478750D01*
X152627000Y-122417749D01*
X152627000Y-116173926D01*
X154150033Y-114650893D01*
X154378499Y-114422825D01*
X154626717Y-113825050D01*
X154627282Y-113177789D01*
X154380108Y-112579582D01*
X153922825Y-112121501D01*
X153325050Y-111873283D01*
X152677789Y-111872718D01*
X152079582Y-112119892D01*
X151621501Y-112577175D01*
X151621218Y-112577856D01*
X150202000Y-113997074D01*
X150202000Y-93625607D01*
X150341113Y-93625607D01*
X150821029Y-94787092D01*
X151708894Y-95676508D01*
X152869539Y-96158450D01*
X154126267Y-96159547D01*
X155287752Y-95679631D01*
X156177168Y-94791766D01*
X156659110Y-93631121D01*
X156659850Y-92783200D01*
X159077936Y-92783200D01*
X159105121Y-93353470D01*
X159271053Y-93754065D01*
X159517183Y-93828212D01*
X160345395Y-93000000D01*
X159517183Y-92171788D01*
X159271053Y-92245935D01*
X159077936Y-92783200D01*
X156659850Y-92783200D01*
X156660207Y-92374393D01*
X156180291Y-91212908D01*
X155292426Y-90323492D01*
X154131781Y-89841550D01*
X152875053Y-89840453D01*
X151713568Y-90320369D01*
X150824152Y-91208234D01*
X150342210Y-92368879D01*
X150341113Y-93625607D01*
X150202000Y-93625607D01*
X150202000Y-82702000D01*
X214798000Y-82702000D01*
X214798000Y-119997074D01*
X214798000Y-119997074D01*
G37*
X214798000Y-119997074D02*
X214627000Y-119826074D01*
X214627000Y-107500005D01*
X214627001Y-107500000D01*
X214503152Y-106877374D01*
X214466293Y-106822211D01*
X214150463Y-106349537D01*
X214150460Y-106349535D01*
X213150463Y-105349537D01*
X212622626Y-104996848D01*
X212000000Y-104873000D01*
X160427538Y-104873000D01*
X160878499Y-104422825D01*
X161010241Y-104105555D01*
X161020974Y-104107358D01*
X161253000Y-103986217D01*
X161253000Y-102627000D01*
X161233000Y-102627000D01*
X161233000Y-102373000D01*
X161253000Y-102373000D01*
X161253000Y-102353000D01*
X161507000Y-102353000D01*
X161507000Y-102373000D01*
X161527000Y-102373000D01*
X161527000Y-102627000D01*
X161507000Y-102627000D01*
X161507000Y-103986217D01*
X161739026Y-104107358D01*
X161754791Y-104104709D01*
X162282036Y-103850732D01*
X162317816Y-103810686D01*
X162512433Y-104101951D01*
X163158230Y-104533459D01*
X163920000Y-104684984D01*
X164681770Y-104533459D01*
X165190000Y-104193870D01*
X165698230Y-104533459D01*
X166460000Y-104684984D01*
X167221770Y-104533459D01*
X167427764Y-104395818D01*
X167689344Y-104574548D01*
X168136400Y-104665079D01*
X169863600Y-104665079D01*
X170281241Y-104586494D01*
X170664819Y-104339669D01*
X170922148Y-103963056D01*
X171012679Y-103516000D01*
X171012679Y-101484000D01*
X170934094Y-101066359D01*
X170687269Y-100682781D01*
X170310656Y-100425452D01*
X169863600Y-100334921D01*
X168136400Y-100334921D01*
X167718759Y-100413506D01*
X167425152Y-100602436D01*
X167221770Y-100466541D01*
X166460000Y-100315016D01*
X165698230Y-100466541D01*
X165190000Y-100806130D01*
X164681770Y-100466541D01*
X164527057Y-100435767D01*
X164527265Y-100197593D01*
X164295283Y-99636154D01*
X163952000Y-99292271D01*
X163952000Y-99160000D01*
X163856082Y-98677789D01*
X163841473Y-98604343D01*
X163526719Y-98133281D01*
X163224091Y-97830653D01*
X163050108Y-97409582D01*
X162787944Y-97146960D01*
X162814620Y-97120331D01*
X162866960Y-97172763D01*
X163574994Y-97466765D01*
X164341642Y-97467434D01*
X165050188Y-97174668D01*
X165104620Y-97120331D01*
X165156960Y-97172763D01*
X165864994Y-97466765D01*
X166631642Y-97467434D01*
X167340188Y-97174668D01*
X167394620Y-97120331D01*
X167446960Y-97172763D01*
X168154994Y-97466765D01*
X168921642Y-97467434D01*
X169630188Y-97174668D01*
X169684620Y-97120331D01*
X169736960Y-97172763D01*
X170444994Y-97466765D01*
X171206392Y-97467429D01*
X171121501Y-97552173D01*
X170873283Y-98149948D01*
X170872718Y-98797209D01*
X171119892Y-99395416D01*
X171373000Y-99648966D01*
X171373000Y-101000000D01*
X171496848Y-101622626D01*
X171849537Y-102150463D01*
X173348534Y-103649459D01*
X173577175Y-103878499D01*
X174174950Y-104126717D01*
X174822211Y-104127282D01*
X175420418Y-103880108D01*
X175534419Y-103766305D01*
X175565906Y-103933641D01*
X175812731Y-104317219D01*
X176189344Y-104574548D01*
X176636400Y-104665079D01*
X178363600Y-104665079D01*
X178781241Y-104586494D01*
X179164819Y-104339669D01*
X179409518Y-103981541D01*
X179665209Y-104104709D01*
X179680974Y-104107358D01*
X179913000Y-103986217D01*
X179913000Y-102627000D01*
X180167000Y-102627000D01*
X180167000Y-103986217D01*
X180399026Y-104107358D01*
X180414791Y-104104709D01*
X180942036Y-103850732D01*
X181310000Y-103438892D01*
X181677964Y-103850732D01*
X182205209Y-104104709D01*
X182220974Y-104107358D01*
X182453000Y-103986217D01*
X182453000Y-102627000D01*
X180167000Y-102627000D01*
X179913000Y-102627000D01*
X179893000Y-102627000D01*
X179893000Y-102373000D01*
X179913000Y-102373000D01*
X179913000Y-101013783D01*
X180167000Y-101013783D01*
X180167000Y-102373000D01*
X182453000Y-102373000D01*
X182453000Y-101013783D01*
X182220974Y-100892642D01*
X182205209Y-100895291D01*
X181677964Y-101149268D01*
X181310000Y-101561108D01*
X180942036Y-101149268D01*
X180414791Y-100895291D01*
X180399026Y-100892642D01*
X180167000Y-101013783D01*
X179913000Y-101013783D01*
X179680974Y-100892642D01*
X179665209Y-100895291D01*
X179404749Y-101020756D01*
X179187269Y-100682781D01*
X178810656Y-100425452D01*
X178363600Y-100334921D01*
X176636400Y-100334921D01*
X176218759Y-100413506D01*
X175835181Y-100660331D01*
X175577852Y-101036944D01*
X175537472Y-101236348D01*
X175422825Y-101121501D01*
X175422143Y-101121218D01*
X174627000Y-100326074D01*
X174627000Y-98975003D01*
X174627001Y-98974998D01*
X174503152Y-98352372D01*
X174150463Y-97824535D01*
X173650893Y-97324965D01*
X173422825Y-97096499D01*
X172825050Y-96848281D01*
X172247651Y-96847777D01*
X172462763Y-96633040D01*
X172756765Y-95925006D01*
X172757434Y-95158358D01*
X172464668Y-94449812D01*
X171923040Y-93907237D01*
X171215006Y-93613235D01*
X170989638Y-93613038D01*
X171132064Y-93216800D01*
X171104879Y-92646530D01*
X170997480Y-92387247D01*
X171211642Y-92387434D01*
X171920188Y-92094668D01*
X172462763Y-91553040D01*
X172756765Y-90845006D01*
X172757392Y-90127000D01*
X177180237Y-90127000D01*
X176712248Y-90320369D01*
X175822832Y-91208234D01*
X175340890Y-92368879D01*
X175339793Y-93625607D01*
X175819709Y-94787092D01*
X176707574Y-95676508D01*
X177868219Y-96158450D01*
X179124947Y-96159547D01*
X180286432Y-95679631D01*
X181175848Y-94791766D01*
X181500203Y-94010633D01*
X181821029Y-94787092D01*
X182708894Y-95676508D01*
X183869539Y-96158450D01*
X185126267Y-96159547D01*
X186287752Y-95679631D01*
X187177168Y-94791766D01*
X187659110Y-93631121D01*
X187659850Y-92783200D01*
X190077936Y-92783200D01*
X190105121Y-93353470D01*
X190271053Y-93754065D01*
X190517183Y-93828212D01*
X191345395Y-93000000D01*
X190517183Y-92171788D01*
X190271053Y-92245935D01*
X190077936Y-92783200D01*
X187659850Y-92783200D01*
X187660207Y-92374393D01*
X187180291Y-91212908D01*
X186292426Y-90323492D01*
X185819221Y-90127000D01*
X190743190Y-90127000D01*
X190742566Y-90841642D01*
X191035332Y-91550188D01*
X191096314Y-91611277D01*
X190770935Y-91746053D01*
X190696788Y-91992183D01*
X191525000Y-92820395D01*
X191539143Y-92806253D01*
X191718748Y-92985858D01*
X191704605Y-93000000D01*
X191718748Y-93014143D01*
X191539143Y-93193748D01*
X191525000Y-93179605D01*
X190696788Y-94007817D01*
X190770935Y-94253947D01*
X191108897Y-94375425D01*
X191037237Y-94446960D01*
X190743235Y-95154994D01*
X190742566Y-95921642D01*
X190965236Y-96460543D01*
X190579582Y-96619892D01*
X190121501Y-97077175D01*
X190000008Y-97369762D01*
X189880108Y-97079582D01*
X189422825Y-96621501D01*
X188825050Y-96373283D01*
X188177789Y-96372718D01*
X187579582Y-96619892D01*
X187121501Y-97077175D01*
X186873283Y-97674950D01*
X186872718Y-98322211D01*
X186873000Y-98322893D01*
X186873000Y-101415026D01*
X186527567Y-100898049D01*
X185881770Y-100466541D01*
X185120000Y-100315016D01*
X184358230Y-100466541D01*
X183712433Y-100898049D01*
X183517816Y-101189314D01*
X183482036Y-101149268D01*
X182954791Y-100895291D01*
X182939026Y-100892642D01*
X182707000Y-101013783D01*
X182707000Y-102373000D01*
X182727000Y-102373000D01*
X182727000Y-102627000D01*
X182707000Y-102627000D01*
X182707000Y-103986217D01*
X182939026Y-104107358D01*
X182954791Y-104104709D01*
X183482036Y-103850732D01*
X183517816Y-103810686D01*
X183712433Y-104101951D01*
X184358230Y-104533459D01*
X185120000Y-104684984D01*
X185881770Y-104533459D01*
X186527567Y-104101951D01*
X186939912Y-103484833D01*
X187119892Y-103920418D01*
X187577175Y-104378499D01*
X188174950Y-104626717D01*
X188822211Y-104627282D01*
X189420418Y-104380108D01*
X189878499Y-103922825D01*
X190126717Y-103325050D01*
X190127121Y-102861913D01*
X192394816Y-102861913D01*
X192588046Y-103414320D01*
X192977964Y-103850732D01*
X193505209Y-104104709D01*
X193520974Y-104107358D01*
X193753000Y-103986217D01*
X193753000Y-102627000D01*
X192539076Y-102627000D01*
X192394816Y-102861913D01*
X190127121Y-102861913D01*
X190127282Y-102677789D01*
X190127000Y-102677107D01*
X190127000Y-102138087D01*
X192394816Y-102138087D01*
X192539076Y-102373000D01*
X193753000Y-102373000D01*
X193753000Y-101013783D01*
X194007000Y-101013783D01*
X194007000Y-102373000D01*
X194027000Y-102373000D01*
X194027000Y-102627000D01*
X194007000Y-102627000D01*
X194007000Y-103986217D01*
X194239026Y-104107358D01*
X194254791Y-104104709D01*
X194782036Y-103850732D01*
X194817816Y-103810686D01*
X195012433Y-104101951D01*
X195658230Y-104533459D01*
X196420000Y-104684984D01*
X197181770Y-104533459D01*
X197690000Y-104193870D01*
X198198230Y-104533459D01*
X198960000Y-104684984D01*
X199721770Y-104533459D01*
X199927764Y-104395818D01*
X200189344Y-104574548D01*
X200636400Y-104665079D01*
X202363600Y-104665079D01*
X202781241Y-104586494D01*
X203164819Y-104339669D01*
X203422148Y-103963056D01*
X203512679Y-103516000D01*
X203512679Y-101484000D01*
X203434094Y-101066359D01*
X203187269Y-100682781D01*
X202810656Y-100425452D01*
X202363600Y-100334921D01*
X200636400Y-100334921D01*
X200218759Y-100413506D01*
X199925152Y-100602436D01*
X199721770Y-100466541D01*
X198960000Y-100315016D01*
X198198230Y-100466541D01*
X197690000Y-100806130D01*
X197181770Y-100466541D01*
X196420000Y-100315016D01*
X195658230Y-100466541D01*
X195012433Y-100898049D01*
X194817816Y-101189314D01*
X194782036Y-101149268D01*
X194254791Y-100895291D01*
X194239026Y-100892642D01*
X194007000Y-101013783D01*
X193753000Y-101013783D01*
X193520974Y-100892642D01*
X193505209Y-100895291D01*
X192977964Y-101149268D01*
X192588046Y-101585680D01*
X192394816Y-102138087D01*
X190127000Y-102138087D01*
X190127000Y-98927538D01*
X190577175Y-99378499D01*
X191174950Y-99626717D01*
X191822211Y-99627282D01*
X192246426Y-99452000D01*
X193754185Y-99452000D01*
X194174950Y-99626717D01*
X194822211Y-99627282D01*
X195420418Y-99380108D01*
X195878499Y-98922825D01*
X196126717Y-98325050D01*
X196127282Y-97677789D01*
X195938470Y-97220829D01*
X196050188Y-97174668D01*
X196104620Y-97120331D01*
X196156960Y-97172763D01*
X196864994Y-97466765D01*
X197631642Y-97467434D01*
X198340188Y-97174668D01*
X198394620Y-97120331D01*
X198446960Y-97172763D01*
X199154994Y-97466765D01*
X199921642Y-97467434D01*
X200630188Y-97174668D01*
X200684620Y-97120331D01*
X200736960Y-97172763D01*
X201444994Y-97466765D01*
X202211642Y-97467434D01*
X202920188Y-97174668D01*
X203462763Y-96633040D01*
X203756765Y-95925006D01*
X203757434Y-95158358D01*
X203464668Y-94449812D01*
X202923040Y-93907237D01*
X202244802Y-93625607D01*
X206339793Y-93625607D01*
X206819709Y-94787092D01*
X207707574Y-95676508D01*
X208868219Y-96158450D01*
X210124947Y-96159547D01*
X211286432Y-95679631D01*
X212175848Y-94791766D01*
X212657790Y-93631121D01*
X212658887Y-92374393D01*
X212178971Y-91212908D01*
X211291106Y-90323492D01*
X210130461Y-89841550D01*
X208873733Y-89840453D01*
X207712248Y-90320369D01*
X206822832Y-91208234D01*
X206340890Y-92368879D01*
X206339793Y-93625607D01*
X202244802Y-93625607D01*
X202215006Y-93613235D01*
X201989638Y-93613038D01*
X202132064Y-93216800D01*
X202104879Y-92646530D01*
X201997480Y-92387247D01*
X202211642Y-92387434D01*
X202920188Y-92094668D01*
X203462763Y-91553040D01*
X203756765Y-90845006D01*
X203757434Y-90078358D01*
X203464668Y-89369812D01*
X202923040Y-88827237D01*
X202215006Y-88533235D01*
X201448358Y-88532566D01*
X200739812Y-88825332D01*
X200685380Y-88879669D01*
X200633040Y-88827237D01*
X199925006Y-88533235D01*
X199158358Y-88532566D01*
X198449812Y-88825332D01*
X198395380Y-88879669D01*
X198343040Y-88827237D01*
X197635006Y-88533235D01*
X196868358Y-88532566D01*
X196391218Y-88729717D01*
X196110463Y-88309537D01*
X195150463Y-87349537D01*
X194622626Y-86996848D01*
X194000000Y-86873000D01*
X167500000Y-86873000D01*
X166877374Y-86996848D01*
X166349537Y-87349537D01*
X165099537Y-88599537D01*
X164970339Y-88792896D01*
X164345006Y-88533235D01*
X163578358Y-88532566D01*
X162869812Y-88825332D01*
X162815380Y-88879669D01*
X162763040Y-88827237D01*
X162055006Y-88533235D01*
X161288358Y-88532566D01*
X160579812Y-88825332D01*
X160037237Y-89366960D01*
X159743235Y-90074994D01*
X159742566Y-90841642D01*
X160035332Y-91550188D01*
X160096314Y-91611277D01*
X159770935Y-91746053D01*
X159696788Y-91992183D01*
X160525000Y-92820395D01*
X160539143Y-92806253D01*
X160718748Y-92985858D01*
X160704605Y-93000000D01*
X160718748Y-93014143D01*
X160539143Y-93193748D01*
X160525000Y-93179605D01*
X159696788Y-94007817D01*
X159770935Y-94253947D01*
X160108897Y-94375425D01*
X160037237Y-94446960D01*
X159743235Y-95154994D01*
X159742566Y-95921642D01*
X160035332Y-96630188D01*
X160551685Y-97147444D01*
X160291501Y-97407175D01*
X160043283Y-98004950D01*
X160042718Y-98652211D01*
X160289892Y-99250418D01*
X160747175Y-99708499D01*
X161048000Y-99833413D01*
X161048000Y-100000000D01*
X161158527Y-100555657D01*
X161354533Y-100849000D01*
X161252998Y-100849000D01*
X161252998Y-101013782D01*
X161020974Y-100892642D01*
X161006667Y-100895046D01*
X161003152Y-100877374D01*
X160650463Y-100349537D01*
X158150893Y-97849967D01*
X157922825Y-97621501D01*
X157325050Y-97373283D01*
X156677789Y-97372718D01*
X156079582Y-97619892D01*
X155621501Y-98077175D01*
X155373283Y-98674950D01*
X155372718Y-99322211D01*
X155619892Y-99920418D01*
X156077175Y-100378499D01*
X156077856Y-100378782D01*
X157873000Y-102173926D01*
X157873000Y-103499153D01*
X157872718Y-103822211D01*
X158119892Y-104420418D01*
X158577175Y-104878499D01*
X159119145Y-105103545D01*
X159079582Y-105119892D01*
X158621501Y-105577175D01*
X158373283Y-106174950D01*
X158372888Y-106626911D01*
X158279987Y-106588335D01*
X157513379Y-106587666D01*
X156804869Y-106880416D01*
X156625162Y-107059810D01*
X156447984Y-106882322D01*
X155739987Y-106588335D01*
X154973379Y-106587666D01*
X154264869Y-106880416D01*
X154085162Y-107059810D01*
X153907984Y-106882322D01*
X153199987Y-106588335D01*
X152433379Y-106587666D01*
X151724869Y-106880416D01*
X151182323Y-107422017D01*
X150888336Y-108130014D01*
X150887667Y-108896622D01*
X151180417Y-109605132D01*
X151722018Y-110147678D01*
X152430015Y-110441665D01*
X153196623Y-110442334D01*
X153905133Y-110149584D01*
X154084840Y-109970190D01*
X154262018Y-110147678D01*
X154970015Y-110441665D01*
X155736623Y-110442334D01*
X156445133Y-110149584D01*
X156624840Y-109970190D01*
X156802018Y-110147678D01*
X157510015Y-110441665D01*
X158276623Y-110442334D01*
X158985133Y-110149584D01*
X159164840Y-109970190D01*
X159342018Y-110147678D01*
X160050015Y-110441665D01*
X160816623Y-110442334D01*
X161525133Y-110149584D01*
X161704840Y-109970190D01*
X161882018Y-110147678D01*
X162590015Y-110441665D01*
X163356623Y-110442334D01*
X164065133Y-110149584D01*
X164244840Y-109970190D01*
X164422018Y-110147678D01*
X165130015Y-110441665D01*
X165896623Y-110442334D01*
X166605133Y-110149584D01*
X166784840Y-109970190D01*
X166962018Y-110147678D01*
X167670015Y-110441665D01*
X168436623Y-110442334D01*
X169145133Y-110149584D01*
X169324840Y-109970190D01*
X169502018Y-110147678D01*
X170210015Y-110441665D01*
X170976623Y-110442334D01*
X171685133Y-110149584D01*
X171864840Y-109970190D01*
X172042018Y-110147678D01*
X172750015Y-110441665D01*
X173516623Y-110442334D01*
X174225133Y-110149584D01*
X174404840Y-109970190D01*
X174582018Y-110147678D01*
X175290015Y-110441665D01*
X176056623Y-110442334D01*
X176765133Y-110149584D01*
X176944840Y-109970190D01*
X177122018Y-110147678D01*
X177830015Y-110441665D01*
X178596623Y-110442334D01*
X179305133Y-110149584D01*
X179484840Y-109970190D01*
X179662018Y-110147678D01*
X180370015Y-110441665D01*
X181136623Y-110442334D01*
X181845133Y-110149584D01*
X182024840Y-109970190D01*
X182202018Y-110147678D01*
X182910015Y-110441665D01*
X183676623Y-110442334D01*
X184385133Y-110149584D01*
X184564840Y-109970190D01*
X184742018Y-110147678D01*
X185450015Y-110441665D01*
X186216623Y-110442334D01*
X186925133Y-110149584D01*
X187467679Y-109607983D01*
X187471977Y-109597632D01*
X187546862Y-109522747D01*
X187620996Y-109768864D01*
X188158224Y-109961965D01*
X188728455Y-109934778D01*
X189129006Y-109768864D01*
X189203140Y-109522747D01*
X189276820Y-109596427D01*
X189280417Y-109605132D01*
X189822018Y-110147678D01*
X190530015Y-110441665D01*
X191296623Y-110442334D01*
X192005133Y-110149584D01*
X192184840Y-109970190D01*
X192362018Y-110147678D01*
X193070015Y-110441665D01*
X193836623Y-110442334D01*
X194545133Y-110149584D01*
X194724840Y-109970190D01*
X194902018Y-110147678D01*
X195610015Y-110441665D01*
X196376623Y-110442334D01*
X197085133Y-110149584D01*
X197264840Y-109970190D01*
X197442018Y-110147678D01*
X198150015Y-110441665D01*
X198916623Y-110442334D01*
X199625133Y-110149584D01*
X199804840Y-109970190D01*
X199982018Y-110147678D01*
X200690015Y-110441665D01*
X201456623Y-110442334D01*
X202165133Y-110149584D01*
X202344840Y-109970190D01*
X202522018Y-110147678D01*
X203230015Y-110441665D01*
X203996623Y-110442334D01*
X204705133Y-110149584D01*
X204884840Y-109970190D01*
X205062018Y-110147678D01*
X205770015Y-110441665D01*
X206536623Y-110442334D01*
X207245133Y-110149584D01*
X207424840Y-109970190D01*
X207602018Y-110147678D01*
X208310015Y-110441665D01*
X209076623Y-110442334D01*
X209785133Y-110149584D01*
X209964840Y-109970190D01*
X210142018Y-110147678D01*
X210850015Y-110441665D01*
X211373000Y-110442121D01*
X211373000Y-120500000D01*
X211496848Y-121122626D01*
X211849537Y-121650463D01*
X212316718Y-122117644D01*
X211619987Y-121828335D01*
X210853379Y-121827666D01*
X210144869Y-122120416D01*
X209965162Y-122299810D01*
X209787984Y-122122322D01*
X209079987Y-121828335D01*
X208313379Y-121827666D01*
X207604869Y-122120416D01*
X207425162Y-122299810D01*
X207247984Y-122122322D01*
X206539987Y-121828335D01*
X205773379Y-121827666D01*
X205064869Y-122120416D01*
X204885162Y-122299810D01*
X204707984Y-122122322D01*
X203999987Y-121828335D01*
X203233379Y-121827666D01*
X202524869Y-122120416D01*
X202345162Y-122299810D01*
X202167984Y-122122322D01*
X201459987Y-121828335D01*
X200693379Y-121827666D01*
X199984869Y-122120416D01*
X199805162Y-122299810D01*
X199627984Y-122122322D01*
X198919987Y-121828335D01*
X198153379Y-121827666D01*
X197444869Y-122120416D01*
X197265162Y-122299810D01*
X197087984Y-122122322D01*
X196379987Y-121828335D01*
X195613379Y-121827666D01*
X194904869Y-122120416D01*
X194725162Y-122299810D01*
X194547984Y-122122322D01*
X193839987Y-121828335D01*
X193073379Y-121827666D01*
X192364869Y-122120416D01*
X192185162Y-122299810D01*
X192007984Y-122122322D01*
X191299987Y-121828335D01*
X190533379Y-121827666D01*
X189824869Y-122120416D01*
X189645162Y-122299810D01*
X189467984Y-122122322D01*
X188759987Y-121828335D01*
X187993379Y-121827666D01*
X187284869Y-122120416D01*
X187105162Y-122299810D01*
X186927984Y-122122322D01*
X186219987Y-121828335D01*
X185453379Y-121827666D01*
X184744869Y-122120416D01*
X184565162Y-122299810D01*
X184387984Y-122122322D01*
X183679987Y-121828335D01*
X182913379Y-121827666D01*
X182204869Y-122120416D01*
X182025162Y-122299810D01*
X181847984Y-122122322D01*
X181139987Y-121828335D01*
X180373379Y-121827666D01*
X179664869Y-122120416D01*
X179485162Y-122299810D01*
X179307984Y-122122322D01*
X178599987Y-121828335D01*
X177833379Y-121827666D01*
X177124869Y-122120416D01*
X176945162Y-122299810D01*
X176767984Y-122122322D01*
X176059987Y-121828335D01*
X175293379Y-121827666D01*
X174584869Y-122120416D01*
X174405162Y-122299810D01*
X174227984Y-122122322D01*
X173519987Y-121828335D01*
X172753379Y-121827666D01*
X172044869Y-122120416D01*
X171865162Y-122299810D01*
X171687984Y-122122322D01*
X170979987Y-121828335D01*
X170213379Y-121827666D01*
X169504869Y-122120416D01*
X169325162Y-122299810D01*
X169147984Y-122122322D01*
X168439987Y-121828335D01*
X167673379Y-121827666D01*
X166964869Y-122120416D01*
X166785162Y-122299810D01*
X166607984Y-122122322D01*
X165899987Y-121828335D01*
X165133379Y-121827666D01*
X164424869Y-122120416D01*
X164245162Y-122299810D01*
X164067984Y-122122322D01*
X163359987Y-121828335D01*
X162593379Y-121827666D01*
X161884869Y-122120416D01*
X161705162Y-122299810D01*
X161527984Y-122122322D01*
X160819987Y-121828335D01*
X160053379Y-121827666D01*
X159344869Y-122120416D01*
X159165162Y-122299810D01*
X158987984Y-122122322D01*
X158279987Y-121828335D01*
X157513379Y-121827666D01*
X156804869Y-122120416D01*
X156625162Y-122299810D01*
X156447984Y-122122322D01*
X155739987Y-121828335D01*
X154973379Y-121827666D01*
X154264869Y-122120416D01*
X153970032Y-122414740D01*
X153741310Y-122320000D01*
X153100751Y-122320000D01*
X152942001Y-122478750D01*
X152942001Y-123628000D01*
X152962001Y-123628000D01*
X152962001Y-123882000D01*
X152942001Y-123882000D01*
X152942001Y-125031250D01*
X153100751Y-125190000D01*
X153741310Y-125190000D01*
X153970087Y-125095237D01*
X154262018Y-125387678D01*
X154970015Y-125681665D01*
X155736623Y-125682334D01*
X155872889Y-125626030D01*
X155872718Y-125822211D01*
X156119892Y-126420418D01*
X156477791Y-126778942D01*
X156177405Y-126979653D01*
X155941035Y-127333406D01*
X155737423Y-127148959D01*
X155349039Y-126988096D01*
X155127000Y-127110085D01*
X155127000Y-128253000D01*
X155147000Y-128253000D01*
X155147000Y-128507000D01*
X155127000Y-128507000D01*
X155127000Y-128527000D01*
X154873000Y-128527000D01*
X154873000Y-128507000D01*
X153729371Y-128507000D01*
X153608086Y-128729041D01*
X153847611Y-129235134D01*
X154262577Y-129611041D01*
X154650961Y-129771904D01*
X154703551Y-129743011D01*
X153973281Y-130473281D01*
X153658527Y-130944343D01*
X153622268Y-131126630D01*
X153548000Y-131500000D01*
X153548000Y-134280311D01*
X153398781Y-134376331D01*
X153141452Y-134752944D01*
X153050921Y-135200000D01*
X153050921Y-136800000D01*
X153129506Y-137217641D01*
X153376331Y-137601219D01*
X153752944Y-137858548D01*
X154200000Y-137949079D01*
X155800000Y-137949079D01*
X156217641Y-137870494D01*
X156601219Y-137623669D01*
X156854731Y-137252642D01*
X157190961Y-137391904D01*
X157413000Y-137269915D01*
X157413000Y-136127000D01*
X157393000Y-136127000D01*
X157393000Y-135873000D01*
X157413000Y-135873000D01*
X157413000Y-134730085D01*
X157190961Y-134608096D01*
X156849394Y-134749568D01*
X156623669Y-134398781D01*
X156452000Y-134281484D01*
X156452000Y-132101438D01*
X157101438Y-131452000D01*
X163500000Y-131452000D01*
X163625128Y-131427110D01*
X163782603Y-131427248D01*
X163879942Y-131387028D01*
X163973281Y-131526719D01*
X164048000Y-131601438D01*
X164048000Y-131873041D01*
X164000001Y-131872999D01*
X163999999Y-131872999D01*
X163677789Y-131872718D01*
X163079582Y-132119892D01*
X162826032Y-132373000D01*
X161500847Y-132373000D01*
X161177789Y-132372718D01*
X160579582Y-132619892D01*
X160121501Y-133077175D01*
X159873283Y-133674950D01*
X159872933Y-134076436D01*
X159342569Y-134181932D01*
X158717405Y-134599653D01*
X158481035Y-134953406D01*
X158277423Y-134768959D01*
X157889039Y-134608096D01*
X157667000Y-134730085D01*
X157667000Y-135873000D01*
X157687000Y-135873000D01*
X157687000Y-136127000D01*
X157667000Y-136127000D01*
X157667000Y-137269915D01*
X157889039Y-137391904D01*
X158277423Y-137231041D01*
X158481035Y-137046594D01*
X158717405Y-137400347D01*
X159342569Y-137818068D01*
X160080000Y-137964752D01*
X160817431Y-137818068D01*
X161350000Y-137462217D01*
X161882569Y-137818068D01*
X162620000Y-137964752D01*
X163357431Y-137818068D01*
X163982595Y-137400347D01*
X164400316Y-136775183D01*
X164547000Y-136037752D01*
X164547000Y-135962248D01*
X164463291Y-135541415D01*
X164619892Y-135920418D01*
X165077175Y-136378499D01*
X165674950Y-136626717D01*
X166322211Y-136627282D01*
X166421850Y-136586112D01*
X166432433Y-136601951D01*
X167078230Y-137033459D01*
X167840000Y-137184984D01*
X168601770Y-137033459D01*
X169110000Y-136693870D01*
X169618230Y-137033459D01*
X170380000Y-137184984D01*
X171141770Y-137033459D01*
X171787567Y-136601951D01*
X171982184Y-136310686D01*
X172017964Y-136350732D01*
X172545209Y-136604709D01*
X172560974Y-136607358D01*
X172793000Y-136486217D01*
X172793000Y-135127000D01*
X172773000Y-135127000D01*
X172773000Y-134873000D01*
X172793000Y-134873000D01*
X172793000Y-133513783D01*
X172560974Y-133392642D01*
X172545209Y-133395291D01*
X172017964Y-133649268D01*
X171982184Y-133689314D01*
X171929906Y-133611074D01*
X171952000Y-133500000D01*
X171927110Y-133374872D01*
X171927248Y-133217397D01*
X171866582Y-133070574D01*
X171841473Y-132944344D01*
X171770593Y-132838264D01*
X171710457Y-132692725D01*
X171598224Y-132580296D01*
X171526719Y-132473281D01*
X169575330Y-130521892D01*
X169739026Y-130607358D01*
X169754791Y-130604709D01*
X170282036Y-130350732D01*
X170317816Y-130310686D01*
X170512433Y-130601951D01*
X171158230Y-131033459D01*
X171920000Y-131184984D01*
X172681770Y-131033459D01*
X173190000Y-130693870D01*
X173698230Y-131033459D01*
X174460000Y-131184984D01*
X175221770Y-131033459D01*
X175427764Y-130895818D01*
X175689344Y-131074548D01*
X176136400Y-131165079D01*
X177863600Y-131165079D01*
X178281241Y-131086494D01*
X178664819Y-130839669D01*
X178922148Y-130463056D01*
X179012679Y-130016000D01*
X179012679Y-129361913D01*
X180894816Y-129361913D01*
X181088046Y-129914320D01*
X181477964Y-130350732D01*
X182005209Y-130604709D01*
X182020974Y-130607358D01*
X182253000Y-130486217D01*
X182253000Y-129127000D01*
X181039076Y-129127000D01*
X180894816Y-129361913D01*
X179012679Y-129361913D01*
X179012679Y-128638087D01*
X180894816Y-128638087D01*
X181039076Y-128873000D01*
X182253000Y-128873000D01*
X182253000Y-127513783D01*
X182507000Y-127513783D01*
X182507000Y-128873000D01*
X182527000Y-128873000D01*
X182527000Y-129127000D01*
X182507000Y-129127000D01*
X182507000Y-130486217D01*
X182739026Y-130607358D01*
X182754791Y-130604709D01*
X183282036Y-130350732D01*
X183317816Y-130310686D01*
X183512433Y-130601951D01*
X184158230Y-131033459D01*
X184920000Y-131184984D01*
X185681770Y-131033459D01*
X186190000Y-130693870D01*
X186698230Y-131033459D01*
X187460000Y-131184984D01*
X188221770Y-131033459D01*
X188427764Y-130895818D01*
X188689344Y-131074548D01*
X189136400Y-131165079D01*
X190863600Y-131165079D01*
X191281241Y-131086494D01*
X191664819Y-130839669D01*
X191922148Y-130463056D01*
X192012679Y-130016000D01*
X192012679Y-129421230D01*
X194372632Y-129421230D01*
X194695766Y-130203274D01*
X195293578Y-130802131D01*
X196075057Y-131126630D01*
X196921230Y-131127368D01*
X197703274Y-130804234D01*
X198302131Y-130206422D01*
X198626630Y-129424943D01*
X198626633Y-129421230D01*
X203372632Y-129421230D01*
X203695766Y-130203274D01*
X204293578Y-130802131D01*
X205075057Y-131126630D01*
X205921230Y-131127368D01*
X206703274Y-130804234D01*
X207302131Y-130206422D01*
X207626630Y-129424943D01*
X207627368Y-128578770D01*
X207304234Y-127796726D01*
X206706422Y-127197869D01*
X205924943Y-126873370D01*
X205078770Y-126872632D01*
X204296726Y-127195766D01*
X203697869Y-127793578D01*
X203373370Y-128575057D01*
X203372632Y-129421230D01*
X198626633Y-129421230D01*
X198627368Y-128578770D01*
X198304234Y-127796726D01*
X197706422Y-127197869D01*
X196924943Y-126873370D01*
X196078770Y-126872632D01*
X195296726Y-127195766D01*
X194697869Y-127793578D01*
X194373370Y-128575057D01*
X194372632Y-129421230D01*
X192012679Y-129421230D01*
X192012679Y-127984000D01*
X191934094Y-127566359D01*
X191687269Y-127182781D01*
X191310656Y-126925452D01*
X190863600Y-126834921D01*
X189136400Y-126834921D01*
X188718759Y-126913506D01*
X188425152Y-127102436D01*
X188221770Y-126966541D01*
X187460000Y-126815016D01*
X186698230Y-126966541D01*
X186190000Y-127306130D01*
X185681770Y-126966541D01*
X184920000Y-126815016D01*
X184158230Y-126966541D01*
X183512433Y-127398049D01*
X183317816Y-127689314D01*
X183282036Y-127649268D01*
X182754791Y-127395291D01*
X182739026Y-127392642D01*
X182507000Y-127513783D01*
X182253000Y-127513783D01*
X182020974Y-127392642D01*
X182005209Y-127395291D01*
X181477964Y-127649268D01*
X181088046Y-128085680D01*
X180894816Y-128638087D01*
X179012679Y-128638087D01*
X179012679Y-127984000D01*
X178934094Y-127566359D01*
X178687269Y-127182781D01*
X178310656Y-126925452D01*
X177863600Y-126834921D01*
X176136400Y-126834921D01*
X175718759Y-126913506D01*
X175425152Y-127102436D01*
X175221770Y-126966541D01*
X174460000Y-126815016D01*
X173698230Y-126966541D01*
X173190000Y-127306130D01*
X172681770Y-126966541D01*
X171920000Y-126815016D01*
X171158230Y-126966541D01*
X170512433Y-127398049D01*
X170317816Y-127689314D01*
X170282036Y-127649268D01*
X169754791Y-127395291D01*
X169739026Y-127392642D01*
X169507000Y-127513783D01*
X169507000Y-128873000D01*
X169527000Y-128873000D01*
X169527000Y-129127000D01*
X169507000Y-129127000D01*
X169507000Y-129147000D01*
X169253000Y-129147000D01*
X169253000Y-129127000D01*
X169233000Y-129127000D01*
X169233000Y-128873000D01*
X169253000Y-128873000D01*
X169253000Y-127513783D01*
X169020974Y-127392642D01*
X169005209Y-127395291D01*
X168477964Y-127649268D01*
X168088046Y-128085680D01*
X167948780Y-128483814D01*
X167841473Y-127944344D01*
X167841473Y-127944343D01*
X167526719Y-127473281D01*
X165735632Y-125682194D01*
X165896623Y-125682334D01*
X166605133Y-125389584D01*
X166784840Y-125210190D01*
X166962018Y-125387678D01*
X167670015Y-125681665D01*
X168436623Y-125682334D01*
X169145133Y-125389584D01*
X169324840Y-125210190D01*
X169502018Y-125387678D01*
X170210015Y-125681665D01*
X170976623Y-125682334D01*
X171685133Y-125389584D01*
X171864840Y-125210190D01*
X172042018Y-125387678D01*
X172750015Y-125681665D01*
X173516623Y-125682334D01*
X174225133Y-125389584D01*
X174404840Y-125210190D01*
X174582018Y-125387678D01*
X175290015Y-125681665D01*
X176056623Y-125682334D01*
X176765133Y-125389584D01*
X176944840Y-125210190D01*
X177122018Y-125387678D01*
X177830015Y-125681665D01*
X178596623Y-125682334D01*
X179305133Y-125389584D01*
X179484840Y-125210190D01*
X179662018Y-125387678D01*
X180370015Y-125681665D01*
X181136623Y-125682334D01*
X181845133Y-125389584D01*
X182024840Y-125210190D01*
X182202018Y-125387678D01*
X182910015Y-125681665D01*
X183676623Y-125682334D01*
X184385133Y-125389584D01*
X184564840Y-125210190D01*
X184742018Y-125387678D01*
X185450015Y-125681665D01*
X186216623Y-125682334D01*
X186925133Y-125389584D01*
X187104840Y-125210190D01*
X187282018Y-125387678D01*
X187990015Y-125681665D01*
X188756623Y-125682334D01*
X189465133Y-125389584D01*
X189644840Y-125210190D01*
X189822018Y-125387678D01*
X190530015Y-125681665D01*
X191296623Y-125682334D01*
X192005133Y-125389584D01*
X192184840Y-125210190D01*
X192362018Y-125387678D01*
X193070015Y-125681665D01*
X193836623Y-125682334D01*
X194545133Y-125389584D01*
X194724840Y-125210190D01*
X194902018Y-125387678D01*
X195610015Y-125681665D01*
X196376623Y-125682334D01*
X197085133Y-125389584D01*
X197264840Y-125210190D01*
X197442018Y-125387678D01*
X198150015Y-125681665D01*
X198916623Y-125682334D01*
X199625133Y-125389584D01*
X199804840Y-125210190D01*
X199982018Y-125387678D01*
X200690015Y-125681665D01*
X201456623Y-125682334D01*
X202165133Y-125389584D01*
X202344840Y-125210190D01*
X202522018Y-125387678D01*
X203230015Y-125681665D01*
X203996623Y-125682334D01*
X204705133Y-125389584D01*
X204884840Y-125210190D01*
X205062018Y-125387678D01*
X205770015Y-125681665D01*
X206536623Y-125682334D01*
X207245133Y-125389584D01*
X207424840Y-125210190D01*
X207602018Y-125387678D01*
X208310015Y-125681665D01*
X209076623Y-125682334D01*
X209785133Y-125389584D01*
X209964840Y-125210190D01*
X210142018Y-125387678D01*
X210850015Y-125681665D01*
X211616623Y-125682334D01*
X212325133Y-125389584D01*
X212867679Y-124847983D01*
X213161666Y-124139986D01*
X213162335Y-123373378D01*
X212873558Y-122674484D01*
X213373000Y-123173926D01*
X213373000Y-133826074D01*
X210326074Y-136873000D01*
X207945917Y-136873000D01*
X208214989Y-136761822D01*
X208799768Y-136178062D01*
X209116639Y-135414953D01*
X209117360Y-134588672D01*
X208801822Y-133825011D01*
X208218062Y-133240232D01*
X207454953Y-132923361D01*
X206628672Y-132922640D01*
X205865011Y-133238178D01*
X205690561Y-133412324D01*
X205576310Y-133365000D01*
X204785750Y-133365000D01*
X204627000Y-133523750D01*
X204627000Y-134873000D01*
X204647000Y-134873000D01*
X204647000Y-135127000D01*
X204627000Y-135127000D01*
X204627000Y-136476250D01*
X204785750Y-136635000D01*
X205576310Y-136635000D01*
X205690267Y-136587797D01*
X205861938Y-136759768D01*
X206134631Y-136873000D01*
X200445917Y-136873000D01*
X200714989Y-136761822D01*
X201299768Y-136178062D01*
X201616639Y-135414953D01*
X201616751Y-135285750D01*
X202915000Y-135285750D01*
X202915000Y-136126309D01*
X203011673Y-136359698D01*
X203190301Y-136538327D01*
X203423690Y-136635000D01*
X204214250Y-136635000D01*
X204373000Y-136476250D01*
X204373000Y-135127000D01*
X203073750Y-135127000D01*
X202915000Y-135285750D01*
X201616751Y-135285750D01*
X201617360Y-134588672D01*
X201321937Y-133873691D01*
X202915000Y-133873691D01*
X202915000Y-134714250D01*
X203073750Y-134873000D01*
X204373000Y-134873000D01*
X204373000Y-133523750D01*
X204214250Y-133365000D01*
X203423690Y-133365000D01*
X203190301Y-133461673D01*
X203011673Y-133640302D01*
X202915000Y-133873691D01*
X201321937Y-133873691D01*
X201301822Y-133825011D01*
X200718062Y-133240232D01*
X199954953Y-132923361D01*
X199128672Y-132922640D01*
X198365011Y-133238178D01*
X198190561Y-133412324D01*
X198076310Y-133365000D01*
X197285750Y-133365000D01*
X197127000Y-133523750D01*
X197127000Y-134873000D01*
X197147000Y-134873000D01*
X197147000Y-135127000D01*
X197127000Y-135127000D01*
X197127000Y-136476250D01*
X197285750Y-136635000D01*
X198076310Y-136635000D01*
X198190267Y-136587797D01*
X198361938Y-136759768D01*
X198634631Y-136873000D01*
X193036848Y-136873000D01*
X193203274Y-136804234D01*
X193802131Y-136206422D01*
X194126630Y-135424943D01*
X194126751Y-135285750D01*
X195415000Y-135285750D01*
X195415000Y-136126309D01*
X195511673Y-136359698D01*
X195690301Y-136538327D01*
X195923690Y-136635000D01*
X196714250Y-136635000D01*
X196873000Y-136476250D01*
X196873000Y-135127000D01*
X195573750Y-135127000D01*
X195415000Y-135285750D01*
X194126751Y-135285750D01*
X194127368Y-134578770D01*
X193836036Y-133873691D01*
X195415000Y-133873691D01*
X195415000Y-134714250D01*
X195573750Y-134873000D01*
X196873000Y-134873000D01*
X196873000Y-133523750D01*
X196714250Y-133365000D01*
X195923690Y-133365000D01*
X195690301Y-133461673D01*
X195511673Y-133640302D01*
X195415000Y-133873691D01*
X193836036Y-133873691D01*
X193804234Y-133796726D01*
X193206422Y-133197869D01*
X192424943Y-132873370D01*
X191578770Y-132872632D01*
X190796726Y-133195766D01*
X190197869Y-133793578D01*
X189873370Y-134575057D01*
X189872632Y-135421230D01*
X190195766Y-136203274D01*
X190793578Y-136802131D01*
X190964249Y-136873000D01*
X184036848Y-136873000D01*
X184203274Y-136804234D01*
X184802131Y-136206422D01*
X185126630Y-135424943D01*
X185127368Y-134578770D01*
X184804234Y-133796726D01*
X184206422Y-133197869D01*
X183424943Y-132873370D01*
X182578770Y-132872632D01*
X181796726Y-133195766D01*
X181197869Y-133793578D01*
X180873370Y-134575057D01*
X180872632Y-135421230D01*
X181195766Y-136203274D01*
X181793578Y-136802131D01*
X181964249Y-136873000D01*
X179613021Y-136873000D01*
X179664819Y-136839669D01*
X179922148Y-136463056D01*
X180012679Y-136016000D01*
X180012679Y-133984000D01*
X179934094Y-133566359D01*
X179687269Y-133182781D01*
X179310656Y-132925452D01*
X178863600Y-132834921D01*
X177136400Y-132834921D01*
X176718759Y-132913506D01*
X176425152Y-133102436D01*
X176221770Y-132966541D01*
X175460000Y-132815016D01*
X174698230Y-132966541D01*
X174052433Y-133398049D01*
X173857816Y-133689314D01*
X173822036Y-133649268D01*
X173294791Y-133395291D01*
X173279026Y-133392642D01*
X173047000Y-133513783D01*
X173047000Y-134873000D01*
X173067000Y-134873000D01*
X173067000Y-135127000D01*
X173047000Y-135127000D01*
X173047000Y-136486217D01*
X173279026Y-136607358D01*
X173294791Y-136604709D01*
X173822036Y-136350732D01*
X173857816Y-136310686D01*
X173975176Y-136486327D01*
X173873000Y-137000000D01*
X173996848Y-137622626D01*
X174349537Y-138150463D01*
X175849535Y-139650460D01*
X175849537Y-139650463D01*
X176372657Y-140000000D01*
X176377374Y-140003152D01*
X177000000Y-140127000D01*
X211000000Y-140127000D01*
X211622626Y-140003152D01*
X212150463Y-139650463D01*
X214798000Y-137002926D01*
X214798000Y-141798000D01*
X162194635Y-141798000D01*
X162590132Y-141634584D01*
X163132678Y-141092983D01*
X163426665Y-140384986D01*
X163427334Y-139618378D01*
X163134584Y-138909868D01*
X162592983Y-138367322D01*
X161884986Y-138073335D01*
X161118378Y-138072666D01*
X160409868Y-138365416D01*
X159867322Y-138907017D01*
X159573335Y-139615014D01*
X159572666Y-140381622D01*
X159865416Y-141090132D01*
X160407017Y-141632678D01*
X160805155Y-141798000D01*
X150202000Y-141798000D01*
X150202000Y-141007745D01*
X155671861Y-141007745D01*
X155745995Y-141253864D01*
X156283223Y-141446965D01*
X156853454Y-141419778D01*
X157254005Y-141253864D01*
X157328139Y-141007745D01*
X156500000Y-140179605D01*
X155671861Y-141007745D01*
X150202000Y-141007745D01*
X150202000Y-139783223D01*
X155053035Y-139783223D01*
X155080222Y-140353454D01*
X155246136Y-140754005D01*
X155492255Y-140828139D01*
X156320395Y-140000000D01*
X156679605Y-140000000D01*
X157507745Y-140828139D01*
X157753864Y-140754005D01*
X157946965Y-140216777D01*
X157919778Y-139646546D01*
X157753864Y-139245995D01*
X157507745Y-139171861D01*
X156679605Y-140000000D01*
X156320395Y-140000000D01*
X155492255Y-139171861D01*
X155246136Y-139245995D01*
X155053035Y-139783223D01*
X150202000Y-139783223D01*
X150202000Y-138992255D01*
X155671861Y-138992255D01*
X156500000Y-139820395D01*
X157328139Y-138992255D01*
X157254005Y-138746136D01*
X156716777Y-138553035D01*
X156146546Y-138580222D01*
X155745995Y-138746136D01*
X155671861Y-138992255D01*
X150202000Y-138992255D01*
X150202000Y-129430331D01*
X150674950Y-129626717D01*
X151322211Y-129627282D01*
X151920418Y-129380108D01*
X152378499Y-128922825D01*
X152626717Y-128325050D01*
X152626973Y-128030959D01*
X153608086Y-128030959D01*
X153729371Y-128253000D01*
X154873000Y-128253000D01*
X154873000Y-127110085D01*
X154650961Y-126988096D01*
X154262577Y-127148959D01*
X153847611Y-127524866D01*
X153608086Y-128030959D01*
X152626973Y-128030959D01*
X152627282Y-127677789D01*
X152627000Y-127677107D01*
X152627000Y-125092251D01*
X152688001Y-125031250D01*
X152688001Y-123882000D01*
X152668001Y-123882000D01*
X152668001Y-123628000D01*
X152688001Y-123628000D01*
X152688001Y-122478750D01*
X152627000Y-122417749D01*
X152627000Y-116173926D01*
X154150033Y-114650893D01*
X154378499Y-114422825D01*
X154626717Y-113825050D01*
X154627282Y-113177789D01*
X154380108Y-112579582D01*
X153922825Y-112121501D01*
X153325050Y-111873283D01*
X152677789Y-111872718D01*
X152079582Y-112119892D01*
X151621501Y-112577175D01*
X151621218Y-112577856D01*
X150202000Y-113997074D01*
X150202000Y-93625607D01*
X150341113Y-93625607D01*
X150821029Y-94787092D01*
X151708894Y-95676508D01*
X152869539Y-96158450D01*
X154126267Y-96159547D01*
X155287752Y-95679631D01*
X156177168Y-94791766D01*
X156659110Y-93631121D01*
X156659850Y-92783200D01*
X159077936Y-92783200D01*
X159105121Y-93353470D01*
X159271053Y-93754065D01*
X159517183Y-93828212D01*
X160345395Y-93000000D01*
X159517183Y-92171788D01*
X159271053Y-92245935D01*
X159077936Y-92783200D01*
X156659850Y-92783200D01*
X156660207Y-92374393D01*
X156180291Y-91212908D01*
X155292426Y-90323492D01*
X154131781Y-89841550D01*
X152875053Y-89840453D01*
X151713568Y-90320369D01*
X150824152Y-91208234D01*
X150342210Y-92368879D01*
X150341113Y-93625607D01*
X150202000Y-93625607D01*
X150202000Y-82702000D01*
X214798000Y-82702000D01*
X214798000Y-119997074D01*
G36*
X188568749Y-108500858D02*
X188554606Y-108515000D01*
X188568749Y-108529143D01*
X188389143Y-108708748D01*
X188375001Y-108694605D01*
X188360859Y-108708748D01*
X188181253Y-108529142D01*
X188195396Y-108515000D01*
X188181254Y-108500858D01*
X188360859Y-108321253D01*
X188375001Y-108335395D01*
X188389144Y-108321253D01*
X188568749Y-108500858D01*
X188568749Y-108500858D01*
G37*
X188568749Y-108500858D02*
X188554606Y-108515000D01*
X188568749Y-108529143D01*
X188389143Y-108708748D01*
X188375001Y-108694605D01*
X188360859Y-108708748D01*
X188181253Y-108529142D01*
X188195396Y-108515000D01*
X188181254Y-108500858D01*
X188360859Y-108321253D01*
X188375001Y-108335395D01*
X188389144Y-108321253D01*
X188568749Y-108500858D01*
G36*
X196298748Y-92985858D02*
X196284605Y-93000000D01*
X196298748Y-93014143D01*
X196119143Y-93193748D01*
X196105000Y-93179605D01*
X196090858Y-93193748D01*
X195911253Y-93014143D01*
X195925395Y-93000000D01*
X195911253Y-92985858D01*
X196090858Y-92806253D01*
X196105000Y-92820395D01*
X196119143Y-92806253D01*
X196298748Y-92985858D01*
X196298748Y-92985858D01*
G37*
X196298748Y-92985858D02*
X196284605Y-93000000D01*
X196298748Y-93014143D01*
X196119143Y-93193748D01*
X196105000Y-93179605D01*
X196090858Y-93193748D01*
X195911253Y-93014143D01*
X195925395Y-93000000D01*
X195911253Y-92985858D01*
X196090858Y-92806253D01*
X196105000Y-92820395D01*
X196119143Y-92806253D01*
X196298748Y-92985858D01*
G36*
X198588748Y-92985858D02*
X198574605Y-93000000D01*
X198588748Y-93014143D01*
X198409143Y-93193748D01*
X198395000Y-93179605D01*
X198380858Y-93193748D01*
X198201253Y-93014143D01*
X198215395Y-93000000D01*
X198201253Y-92985858D01*
X198380858Y-92806253D01*
X198395000Y-92820395D01*
X198409143Y-92806253D01*
X198588748Y-92985858D01*
X198588748Y-92985858D01*
G37*
X198588748Y-92985858D02*
X198574605Y-93000000D01*
X198588748Y-93014143D01*
X198409143Y-93193748D01*
X198395000Y-93179605D01*
X198380858Y-93193748D01*
X198201253Y-93014143D01*
X198215395Y-93000000D01*
X198201253Y-92985858D01*
X198380858Y-92806253D01*
X198395000Y-92820395D01*
X198409143Y-92806253D01*
X198588748Y-92985858D01*
G36*
X194008748Y-92985858D02*
X193994605Y-93000000D01*
X194008748Y-93014143D01*
X193829143Y-93193748D01*
X193815000Y-93179605D01*
X193800858Y-93193748D01*
X193621253Y-93014143D01*
X193635395Y-93000000D01*
X193621253Y-92985858D01*
X193800858Y-92806253D01*
X193815000Y-92820395D01*
X193829143Y-92806253D01*
X194008748Y-92985858D01*
X194008748Y-92985858D01*
G37*
X194008748Y-92985858D02*
X193994605Y-93000000D01*
X194008748Y-93014143D01*
X193829143Y-93193748D01*
X193815000Y-93179605D01*
X193800858Y-93193748D01*
X193621253Y-93014143D01*
X193635395Y-93000000D01*
X193621253Y-92985858D01*
X193800858Y-92806253D01*
X193815000Y-92820395D01*
X193829143Y-92806253D01*
X194008748Y-92985858D01*
G36*
X169878748Y-92985858D02*
X169864605Y-93000000D01*
X169878748Y-93014143D01*
X169699143Y-93193748D01*
X169685000Y-93179605D01*
X169670858Y-93193748D01*
X169491253Y-93014143D01*
X169505395Y-93000000D01*
X169491253Y-92985858D01*
X169670858Y-92806253D01*
X169685000Y-92820395D01*
X169699143Y-92806253D01*
X169878748Y-92985858D01*
X169878748Y-92985858D01*
G37*
X169878748Y-92985858D02*
X169864605Y-93000000D01*
X169878748Y-93014143D01*
X169699143Y-93193748D01*
X169685000Y-93179605D01*
X169670858Y-93193748D01*
X169491253Y-93014143D01*
X169505395Y-93000000D01*
X169491253Y-92985858D01*
X169670858Y-92806253D01*
X169685000Y-92820395D01*
X169699143Y-92806253D01*
X169878748Y-92985858D01*
G36*
X200878748Y-92985858D02*
X200864605Y-93000000D01*
X200878748Y-93014143D01*
X200699143Y-93193748D01*
X200685000Y-93179605D01*
X200670858Y-93193748D01*
X200491253Y-93014143D01*
X200505395Y-93000000D01*
X200491253Y-92985858D01*
X200670858Y-92806253D01*
X200685000Y-92820395D01*
X200699143Y-92806253D01*
X200878748Y-92985858D01*
X200878748Y-92985858D01*
G37*
X200878748Y-92985858D02*
X200864605Y-93000000D01*
X200878748Y-93014143D01*
X200699143Y-93193748D01*
X200685000Y-93179605D01*
X200670858Y-93193748D01*
X200491253Y-93014143D01*
X200505395Y-93000000D01*
X200491253Y-92985858D01*
X200670858Y-92806253D01*
X200685000Y-92820395D01*
X200699143Y-92806253D01*
X200878748Y-92985858D01*
G36*
X167588748Y-92985858D02*
X167574605Y-93000000D01*
X167588748Y-93014143D01*
X167409143Y-93193748D01*
X167395000Y-93179605D01*
X167380858Y-93193748D01*
X167201253Y-93014143D01*
X167215395Y-93000000D01*
X167201253Y-92985858D01*
X167380858Y-92806253D01*
X167395000Y-92820395D01*
X167409143Y-92806253D01*
X167588748Y-92985858D01*
X167588748Y-92985858D01*
G37*
X167588748Y-92985858D02*
X167574605Y-93000000D01*
X167588748Y-93014143D01*
X167409143Y-93193748D01*
X167395000Y-93179605D01*
X167380858Y-93193748D01*
X167201253Y-93014143D01*
X167215395Y-93000000D01*
X167201253Y-92985858D01*
X167380858Y-92806253D01*
X167395000Y-92820395D01*
X167409143Y-92806253D01*
X167588748Y-92985858D01*
G36*
X163008748Y-92985858D02*
X162994605Y-93000000D01*
X163008748Y-93014143D01*
X162829143Y-93193748D01*
X162815000Y-93179605D01*
X162800858Y-93193748D01*
X162621253Y-93014143D01*
X162635395Y-93000000D01*
X162621253Y-92985858D01*
X162800858Y-92806253D01*
X162815000Y-92820395D01*
X162829143Y-92806253D01*
X163008748Y-92985858D01*
X163008748Y-92985858D01*
G37*
X163008748Y-92985858D02*
X162994605Y-93000000D01*
X163008748Y-93014143D01*
X162829143Y-93193748D01*
X162815000Y-93179605D01*
X162800858Y-93193748D01*
X162621253Y-93014143D01*
X162635395Y-93000000D01*
X162621253Y-92985858D01*
X162800858Y-92806253D01*
X162815000Y-92820395D01*
X162829143Y-92806253D01*
X163008748Y-92985858D01*
G36*
X165298748Y-92985858D02*
X165284605Y-93000000D01*
X165298748Y-93014143D01*
X165119143Y-93193748D01*
X165105000Y-93179605D01*
X165090858Y-93193748D01*
X164911253Y-93014143D01*
X164925395Y-93000000D01*
X164911253Y-92985858D01*
X165090858Y-92806253D01*
X165105000Y-92820395D01*
X165119143Y-92806253D01*
X165298748Y-92985858D01*
X165298748Y-92985858D01*
G37*
X165298748Y-92985858D02*
X165284605Y-93000000D01*
X165298748Y-93014143D01*
X165119143Y-93193748D01*
X165105000Y-93179605D01*
X165090858Y-93193748D01*
X164911253Y-93014143D01*
X164925395Y-93000000D01*
X164911253Y-92985858D01*
X165090858Y-92806253D01*
X165105000Y-92820395D01*
X165119143Y-92806253D01*
X165298748Y-92985858D01*
M02*
